<?xml version="1.0" standalone="no"?>
<!DOCTYPE svg PUBLIC "-//W3C//DTD SVG 20010904//EN"
 "http://www.w3.org/TR/2001/REC-SVG-20010904/DTD/svg10.dtd">
<svg version="1.0" xmlns="http://www.w3.org/2000/svg"
 width="2000.000000pt" height="2000.000000pt" viewBox="0 0 2000.000000 2000.000000"
 preserveAspectRatio="xMidYMid meet">

<g transform="translate(0.000000,2000.000000) scale(0.100000,-0.100000)"
fill="#000000" stroke="none">
<path d="M3814 15975 l-100 -94 -85 31 c-105 37 -230 64 -334 72 l-80 7 25
-22 c60 -51 403 -204 485 -215 26 -4 34 1 62 40 59 81 144 258 131 271 -2 2
-48 -39 -104 -90z"/>
<path d="M11810 14878 c-273 -296 -460 -550 -585 -799 -29 -58 -90 -193 -135
-300 -119 -280 -130 -299 -171 -299 -5 0 -38 27 -75 60 -46 42 -74 60 -93 60
-43 0 -136 -75 -291 -232 -102 -104 -152 -148 -167 -148 -13 0 -23 4 -23 9 0
17 -123 141 -140 141 -10 0 -38 -15 -62 -33 l-44 -34 -64 59 c-104 95 -192
164 -239 189 -54 28 -122 28 -183 1 -102 -45 -615 -407 -745 -526 -126 -115
-211 -259 -239 -402 -8 -43 -17 -88 -19 -99 -2 -12 -36 -61 -74 -109 -81 -104
-143 -222 -168 -321 -10 -38 -18 -71 -18 -72 -1 -2 -19 6 -40 17 -50 26 -111
26 -150 0 -42 -28 -62 -25 -80 11 -21 41 -50 50 -105 33 -25 -8 -48 -14 -51
-14 -4 0 -45 53 -92 118 -85 118 -185 222 -213 222 -22 0 -55 -18 -89 -51 -18
-17 -44 -29 -65 -31 -30 -3 -35 -7 -35 -28 0 -17 8 -29 28 -38 39 -19 70 -9
121 38 24 22 48 40 53 40 6 0 13 -42 15 -97 4 -78 12 -113 36 -175 22 -53 36
-114 47 -199 17 -133 19 -139 40 -139 42 0 29 233 -20 365 -37 100 -59 175
-52 181 2 3 36 -46 75 -109 40 -62 80 -122 91 -133 13 -14 22 -48 30 -110 13
-99 47 -251 60 -273 5 -8 16 -11 26 -7 16 6 17 16 10 89 -6 78 -28 208 -40
249 -5 13 -1 18 13 18 16 0 20 -10 25 -72 14 -160 94 -566 118 -595 18 -21 29
-5 29 44 0 56 -42 327 -73 474 l-23 106 31 -12 c28 -13 30 -17 37 -87 15 -163
121 -622 172 -749 l24 -59 -142 -89 c-77 -49 -222 -147 -321 -217 -99 -70
-223 -155 -275 -189 -132 -87 -269 -139 -317 -121 -13 5 0 16 56 47 142 77
183 113 174 150 -7 25 -23 24 -132 -5 l-90 -24 24 63 c13 35 37 90 54 122 17
32 31 65 31 74 0 22 -28 44 -71 58 -54 17 -75 44 -61 77 16 34 15 83 -3 135
-9 24 -13 50 -9 59 3 8 14 50 24 93 l17 77 -47 0 c-63 0 -80 20 -40 44 36 21
60 64 60 106 0 37 -16 70 -33 70 -18 0 -63 49 -75 80 -5 14 -13 75 -17 135
-10 167 -31 294 -51 317 -28 30 -73 20 -95 -22 -15 -28 -19 -57 -19 -150 0
-113 -27 -265 -53 -298 -5 -7 -39 -31 -74 -54 -35 -23 -62 -46 -60 -52 2 -6
17 -14 33 -17 16 -4 23 -7 15 -8 -9 -1 -12 -9 -9 -25 4 -19 0 -26 -18 -30 -41
-11 -58 -49 -51 -116 7 -58 6 -60 -23 -75 -35 -18 -60 -52 -60 -81 0 -15 13
-28 45 -45 39 -21 43 -25 30 -40 -8 -8 -15 -27 -15 -42 0 -22 -11 -31 -71 -63
-62 -33 -70 -40 -67 -63 3 -24 8 -27 67 -33 65 -7 94 -18 48 -18 -42 0 -57
-10 -57 -40 0 -21 7 -30 30 -40 l30 -13 -25 -23 c-28 -26 -29 -34 -10 -88 l13
-38 -59 -27 c-60 -26 -81 -53 -59 -75 8 -8 -6 -13 -57 -21 -64 -9 -68 -12 -71
-38 -3 -24 5 -32 72 -75 71 -44 91 -71 66 -87 -18 -11 -10 -53 14 -72 13 -10
30 -37 39 -60 l16 -42 -57 -16 c-154 -43 -167 -49 -170 -82 -3 -28 1 -31 74
-64 l77 -35 -82 -13 c-70 -12 -84 -17 -93 -37 -14 -31 1 -50 48 -59 46 -8 38
-16 -38 -35 -100 -25 -104 -62 -13 -107 51 -25 55 -30 55 -63 0 -55 -31 -97
-82 -110 -96 -23 -124 -33 -153 -50 -16 -10 -47 -21 -67 -25 -37 -7 -69 5
-178 65 -51 29 -106 25 -222 -16 -57 -19 -161 -56 -233 -80 l-130 -46 -115 6
c-164 8 -713 89 -746 110 -37 25 -56 63 -83 165 -14 50 -28 91 -31 91 -3 0
-14 -15 -24 -32 -28 -48 -66 -87 -108 -109 l-36 -18 -107 34 c-141 46 -236 97
-287 154 -23 27 -67 103 -105 181 -91 192 -109 224 -175 321 -102 150 -239
283 -348 339 -38 20 -67 24 -195 31 -82 4 -183 15 -224 24 -51 12 -92 15 -130
11 -64 -8 -65 -8 50 67 83 54 158 129 256 254 42 54 77 121 108 206 13 38 26
52 63 74 83 47 117 80 187 178 73 103 106 135 139 135 56 -1 49 -16 -48 -117
-53 -55 -96 -108 -96 -117 0 -53 130 31 230 149 67 79 82 91 142 115 37 15 88
43 115 63 77 58 130 88 158 90 24 2 29 -3 40 -38 7 -22 31 -80 54 -130 26 -55
50 -127 61 -185 15 -70 35 -126 78 -215 68 -137 95 -176 112 -159 16 16 1 66
-65 223 -60 140 -71 186 -26 105 42 -76 71 -114 87 -114 27 0 26 28 -6 106
-32 81 -30 98 10 92 31 -4 216 -254 194 -262 -8 -3 -14 -14 -14 -24 0 -30 50
-121 89 -162 20 -21 35 -44 33 -50 -3 -7 -14 -1 -26 15 -19 24 -25 26 -44 16
-43 -23 -11 -102 33 -84 37 13 -220 -239 -275 -271 -49 -29 -58 -39 -85 -102
-17 -38 -45 -96 -63 -128 -35 -64 -39 -86 -19 -86 23 0 85 73 126 151 30 55
49 79 73 91 76 36 209 183 251 278 31 69 97 151 252 310 160 165 193 208 258
335 32 61 65 108 102 145 53 52 56 53 49 25 -14 -51 -11 -89 7 -93 19 -4 51
63 113 240 105 299 184 440 350 626 61 68 84 108 111 192 43 134 138 282 291
454 43 48 92 106 108 127 l30 39 22 -27 22 -28 -30 -7 c-18 -3 -52 -28 -81
-57 l-51 -50 24 -51 c37 -80 33 -166 -14 -309 -25 -76 -51 -132 -76 -165 -50
-68 -83 -135 -110 -226 -12 -41 -46 -137 -77 -213 -51 -130 -61 -176 -38 -179
6 -1 24 21 40 49 73 123 76 129 70 103 -21 -95 -28 -171 -16 -183 10 -9 16 -8
30 10 23 27 84 235 85 288 1 35 -2 40 -21 39 -27 -1 -25 9 18 130 36 100 79
167 129 200 22 14 57 50 79 79 47 64 96 107 121 107 14 0 30 -21 57 -77 31
-66 56 -97 155 -197 96 -96 131 -139 181 -224 34 -58 68 -107 76 -110 26 -9 5
78 -43 174 l-46 92 0 111 c0 60 -5 156 -11 211 -6 56 -9 103 -7 105 2 3 52
-41 111 -96 77 -73 114 -116 132 -153 14 -29 39 -69 57 -89 54 -60 301 -267
319 -267 10 0 20 11 23 25 3 13 15 29 26 35 11 6 20 15 20 19 0 17 -28 19 -56
5 l-28 -15 -134 133 c-103 103 -141 148 -167 199 -25 50 -58 89 -132 159 -234
221 -576 460 -659 460 -54 0 -267 -215 -375 -379 -44 -67 -83 -142 -110 -211
-37 -98 -48 -115 -122 -196 -106 -118 -206 -272 -263 -408 -80 -190 -100 -223
-200 -327 -76 -80 -102 -116 -143 -196 -58 -117 -109 -188 -222 -308 -46 -49
-99 -108 -116 -130 -21 -25 -33 -34 -33 -23 0 25 -274 432 -304 451 -29 19
-87 22 -117 6 -16 -8 -25 -7 -38 5 -10 9 -24 16 -32 16 -8 0 -44 51 -81 113
-36 62 -73 119 -82 126 -9 8 -35 16 -59 18 -35 4 -53 -1 -107 -31 -192 -105
-205 -110 -330 -116 -86 -4 -123 -9 -142 -22 -15 -10 -58 -62 -96 -115 -78
-109 -96 -128 -165 -167 -65 -37 -82 -59 -113 -140 -31 -84 -52 -120 -113
-201 -75 -98 -167 -190 -241 -240 -46 -31 -81 -65 -105 -101 -39 -58 -82 -87
-157 -103 -48 -11 -98 -2 -286 54 -164 48 -251 29 -448 -100 -87 -57 -204
-162 -204 -183 0 -21 33 -13 80 19 25 16 75 45 111 64 36 18 70 40 77 47 16
20 180 96 223 103 31 6 42 1 95 -38 72 -54 102 -70 176 -91 56 -16 108 -60
108 -92 0 -7 -16 -35 -36 -60 -19 -26 -44 -65 -56 -88 -34 -69 -67 -106 -151
-168 -103 -76 -157 -103 -246 -124 -81 -18 -119 -44 -156 -109 -14 -23 -34
-50 -45 -60 -26 -24 -25 -45 2 -45 14 0 44 23 82 65 60 64 62 65 141 80 99 19
156 46 267 130 89 67 132 118 162 190 29 68 64 111 153 182 266 214 275 218
432 210 57 -4 108 -10 112 -14 12 -12 -134 -192 -222 -275 -70 -67 -79 -88
-36 -88 54 0 169 104 267 240 37 53 75 102 83 108 35 30 126 -41 146 -114 8
-28 4 -68 -15 -177 -58 -333 -128 -529 -212 -595 -53 -43 -84 -53 -151 -50
-56 3 -60 1 -103 -38 -24 -22 -72 -56 -106 -74 -43 -23 -62 -38 -60 -49 8 -38
138 -2 199 56 22 20 38 25 95 27 38 1 76 5 84 9 10 4 22 -4 35 -26 13 -20 36
-37 68 -49 26 -10 68 -26 93 -35 67 -26 87 -57 95 -153 9 -102 36 -159 134
-285 103 -131 131 -176 146 -236 17 -65 46 -86 89 -64 39 20 50 43 50 105 0
84 -26 120 -140 195 -137 91 -142 99 -145 244 -1 96 -6 128 -27 187 -36 99
-41 140 -27 218 6 37 13 66 14 64 2 -2 20 -78 39 -168 44 -201 83 -349 97
-367 6 -7 16 -10 21 -6 26 16 -30 343 -99 572 l-36 124 23 19 c14 11 27 15 32
10 5 -5 16 -52 23 -105 25 -165 79 -406 107 -479 16 -44 38 -35 38 15 0 67
-49 351 -77 442 -3 12 11 2 34 -25 37 -41 41 -51 47 -115 9 -95 61 -350 89
-433 14 -43 27 -67 37 -67 23 0 16 81 -30 334 -22 121 -40 223 -40 226 0 3 13
-1 29 -9 24 -13 29 -23 35 -73 18 -153 114 -621 139 -671 19 -41 32 -23 31 43
-2 68 -53 378 -88 533 l-23 103 46 -48 45 -48 33 -195 c38 -220 97 -486 114
-506 18 -22 29 -6 29 39 0 77 -83 551 -107 614 -5 12 5 8 30 -11 29 -22 37
-35 37 -61 0 -67 101 -505 137 -597 21 -53 43 -50 43 5 0 50 -47 284 -89 446
l-30 114 38 -37 c34 -33 40 -46 51 -114 28 -176 140 -581 171 -618 51 -61 32
72 -62 439 -22 87 -39 161 -36 163 8 8 97 -104 97 -121 0 -66 143 -540 204
-679 26 -59 56 -76 56 -31 0 23 -96 364 -159 563 -25 79 -27 92 -13 86 9 -4
29 -9 45 -12 21 -3 27 -10 27 -31 0 -35 50 -223 106 -400 69 -218 102 -283
120 -236 8 20 -66 312 -121 474 -24 74 -43 136 -41 139 3 2 16 -14 30 -36 81
-129 105 -174 121 -228 70 -245 126 -382 194 -484 17 -25 31 -53 31 -63 0 -45
43 -94 98 -111 21 -7 22 -4 22 39 0 60 -20 105 -63 141 -47 39 -93 135 -178
371 -49 135 -90 275 -130 443 -32 135 -58 253 -59 264 0 19 23 19 156 0 36 -5
115 9 174 30 11 4 28 -18 61 -77 26 -45 45 -83 44 -85 -1 -1 -19 5 -40 14 -32
13 -45 14 -82 3 -24 -6 -42 -15 -41 -20 2 -4 128 -103 282 -219 l278 -210 97
0 c115 0 181 16 276 65 61 32 76 36 117 32 60 -7 103 -29 155 -80 l42 -40 -18
-26 c-50 -70 -40 -108 54 -204 41 -42 75 -80 75 -85 0 -12 -75 -22 -174 -22
-106 0 -112 -5 -88 -61 11 -24 28 -52 39 -61 28 -26 105 -57 157 -64 59 -8 51
-20 -20 -29 -32 -4 -67 -11 -79 -17 -15 -7 -45 -6 -95 1 -78 12 -100 6 -100
-30 0 -14 -7 -19 -27 -19 -16 0 -33 -4 -39 -8 -22 -14 32 -105 125 -211 95
-109 133 -179 112 -205 -10 -12 -22 -11 -79 6 -37 11 -91 31 -121 44 -70 31
-106 31 -127 -1 -18 -28 -21 -21 63 -136 35 -48 63 -91 63 -96 0 -5 -33 -19
-72 -31 -40 -11 -100 -31 -134 -43 -55 -21 -66 -22 -103 -10 -71 21 -111 68
-226 268 -130 225 -142 243 -162 243 -27 0 -7 -76 52 -194 l54 -108 -40 6
c-21 3 -63 18 -93 33 l-53 26 -41 106 c-48 122 -75 171 -97 171 -23 0 -19 -63
10 -144 13 -39 23 -71 22 -73 -2 -1 -18 5 -36 15 -27 14 -40 34 -76 120 -50
119 -70 152 -90 152 -22 0 -19 -47 10 -137 13 -42 23 -79 21 -81 -2 -1 -15 0
-29 3 -22 6 -26 14 -32 63 -10 82 -43 204 -59 221 -8 7 -19 10 -25 7 -16 -11
-12 -112 8 -189 14 -56 15 -67 3 -62 -7 3 -17 5 -22 5 -4 0 -10 18 -14 40 -7
46 -153 489 -185 563 -23 53 -51 64 -51 19 0 -67 99 -390 169 -555 l20 -46
-58 21 -58 21 -6 61 c-13 126 -79 328 -110 334 -14 3 -17 -4 -17 -40 0 -52 30
-178 63 -271 20 -55 22 -67 9 -62 -8 3 -43 13 -78 21 l-63 16 -11 57 c-22 108
-69 306 -82 346 -18 54 -42 53 -46 -2 -4 -52 21 -203 50 -301 11 -40 18 -75
15 -78 -13 -14 -35 6 -41 38 -11 55 -96 310 -119 358 -26 54 -57 66 -57 23 0
-39 43 -197 80 -290 16 -42 28 -78 26 -80 -1 -2 -17 7 -35 19 -28 19 -42 47
-91 173 -31 83 -69 177 -84 210 -41 90 -76 122 -76 68 0 -27 76 -262 118 -368
l20 -50 -157 3 c-238 5 -248 5 -360 -28 -108 -31 -128 -41 -117 -59 10 -15 73
-14 184 5 77 13 108 14 161 5 39 -6 115 -8 181 -5 108 6 120 4 190 -21 41 -15
129 -54 194 -87 66 -33 181 -84 256 -113 75 -29 265 -109 421 -178 156 -69
340 -148 409 -177 224 -93 297 -143 460 -312 104 -107 103 -109 -9 -83 -73 18
-91 15 -91 -15 0 -13 19 -32 57 -57 l56 -38 -69 -8 c-82 -9 -209 -45 -225 -63
-6 -7 -9 -23 -7 -36 3 -22 9 -24 190 -43 102 -11 190 -23 194 -27 4 -4 -89 -5
-207 -1 l-214 6 16 -24 c9 -13 39 -43 68 -66 66 -55 113 -58 201 -13 32 16 77
32 99 36 85 14 185 -56 212 -146 16 -52 7 -67 -51 -97 -87 -45 -171 -19 -270
81 -30 31 -57 56 -61 56 -12 0 -49 -102 -49 -134 0 -35 27 -66 90 -104 19 -11
55 -41 79 -66 l44 -45 -131 -41 c-134 -43 -151 -55 -136 -95 6 -16 16 -17 83
-11 174 15 328 19 347 8 18 -10 17 -11 -6 -15 -14 -3 -106 -10 -205 -16 -147
-9 -182 -14 -192 -28 -23 -31 1 -47 114 -73 l108 -26 -130 -17 c-71 -10 -136
-24 -145 -31 -8 -7 -73 -24 -145 -36 -71 -12 -135 -25 -142 -27 -15 -6 -18
-59 -4 -68 5 -3 61 -13 125 -22 63 -9 112 -21 110 -25 -3 -4 -18 -8 -33 -8
-18 0 -34 -8 -42 -20 -14 -20 -19 -18 -219 76 -225 105 -291 148 -353 231 -46
61 -470 593 -589 738 -40 49 -91 100 -113 113 -36 21 -49 23 -127 18 -180 -10
-271 18 -449 136 -208 138 -553 302 -780 372 -70 21 -93 33 -118 61 -17 20
-31 37 -31 39 0 1 -14 67 -30 144 -53 251 -71 382 -81 596 -5 121 -15 231 -24
260 -30 109 -79 236 -91 236 -29 0 -23 -90 15 -214 11 -35 24 -126 31 -216
l12 -155 -36 -217 c-36 -213 -71 -361 -102 -420 -24 -46 -86 -110 -121 -125
-56 -23 -131 -17 -201 17 -83 39 -637 417 -692 472 -40 41 -75 97 -91 148 -5
16 -8 -6 -8 -62 l-1 -88 64 -105 c53 -86 62 -106 50 -116 -10 -8 -25 -7 -61 5
-25 9 -48 16 -50 16 -2 0 -3 -71 -3 -157 l0 -158 100 -30 99 -30 27 -62 c31
-73 136 -253 179 -307 l31 -38 42 55 c35 47 39 57 27 67 -8 7 -15 20 -15 29 0
9 -28 73 -62 141 -35 69 -64 128 -66 131 -1 4 4 9 12 12 11 4 39 -44 109 -188
96 -194 167 -316 215 -367 28 -30 52 -36 52 -14 0 8 -43 98 -96 200 -53 102
-93 186 -90 186 2 0 62 -96 132 -212 132 -220 188 -292 260 -334 66 -39 244
-102 319 -113 39 -6 85 -13 103 -16 27 -5 32 -3 32 13 0 12 -27 36 -79 70
-155 101 -260 249 -337 476 -37 107 -28 121 19 31 76 -143 150 -245 179 -245
17 0 20 5 15 28 -6 29 -84 175 -148 275 -21 34 -36 63 -34 66 3 2 23 -4 45
-14 38 -17 46 -29 130 -194 102 -199 132 -243 151 -224 17 17 -6 88 -71 222
-28 57 -46 101 -41 99 5 -1 37 -45 72 -97 66 -97 205 -251 227 -251 46 0 3 79
-132 245 -36 44 -62 83 -58 86 4 4 17 9 28 11 17 2 33 -11 67 -58 50 -65 140
-154 157 -154 17 0 24 29 12 54 -6 13 -31 48 -56 80 -26 31 -44 56 -41 56 3 0
28 -11 55 -25 27 -14 55 -25 62 -25 8 0 32 -26 56 -57 58 -80 150 -175 165
-170 34 11 3 80 -90 194 l-42 52 33 20 c18 12 39 21 46 21 7 0 39 -27 71 -61
43 -45 64 -60 81 -57 35 5 33 30 -7 82 -33 43 -34 47 -13 41 39 -12 89 -55
119 -103 36 -57 62 -125 101 -267 34 -124 41 -140 124 -282 70 -120 148 -223
169 -223 25 0 17 45 -22 117 l-36 68 49 -45 c27 -25 108 -103 181 -173 83 -80
139 -127 152 -127 26 0 26 6 0 50 -60 99 -214 256 -370 378 l-65 51 -54 168
c-74 234 -77 293 -13 293 45 0 79 -26 92 -72 31 -102 105 -216 134 -205 24 9
21 29 -18 114 -19 42 -35 77 -35 79 0 2 11 -1 24 -7 16 -8 26 -23 30 -44 7
-38 118 -210 142 -219 42 -16 44 17 4 96 -16 32 -30 61 -30 63 0 3 10 0 23 -6
12 -5 35 -34 50 -63 57 -108 192 -276 223 -276 31 0 10 53 -65 166 -44 66 -78
120 -76 122 1 1 32 0 68 -4 l66 -7 52 -79 c67 -103 163 -224 189 -238 29 -16
37 12 17 58 -9 21 -11 28 -4 18 104 -162 135 -201 213 -271 47 -44 131 -129
185 -191 116 -132 220 -235 306 -301 34 -26 111 -93 170 -147 116 -107 273
-236 312 -256 29 -15 48 -1 33 26 -11 21 -170 177 -272 267 -65 58 -65 58 -30
52 50 -9 157 -61 327 -158 150 -86 394 -211 513 -262 36 -16 67 -30 69 -31 2
-2 -6 -18 -18 -37 -34 -55 -127 -136 -188 -165 -50 -23 -70 -27 -143 -26 -147
3 -268 46 -426 151 -116 77 -134 84 -232 91 -76 4 -89 9 -144 44 -39 25 -86
45 -132 55 -73 17 -126 53 -126 87 0 20 -19 21 -26 1 -20 -52 37 -118 124
-145 37 -11 97 -41 133 -66 61 -42 73 -46 150 -54 101 -9 119 -16 212 -78 100
-68 162 -98 263 -127 80 -23 102 -25 295 -25 l208 0 26 -34 c33 -44 100 -90
120 -82 25 9 17 40 -21 84 -30 35 -33 43 -19 48 9 4 20 3 24 -2 4 -5 26 -32
49 -60 46 -57 144 -130 161 -120 25 16 8 51 -56 117 -36 38 -61 69 -56 69 6 0
64 -53 130 -119 131 -131 197 -181 215 -163 8 8 8 18 1 34 -15 33 -97 122
-174 188 l-67 58 31 6 c20 4 35 2 42 -6 6 -7 45 -53 86 -102 40 -49 109 -120
152 -158 77 -68 117 -85 117 -50 0 23 -97 137 -221 260 l-94 94 35 29 c19 16
37 29 40 29 3 -1 38 -49 79 -107 100 -143 266 -356 336 -431 57 -62 85 -77 85
-46 0 31 -182 289 -347 491 -45 57 -83 106 -83 109 0 9 60 -5 103 -23 27 -12
45 -29 59 -57 72 -140 565 -825 605 -840 51 -20 25 34 -120 251 -125 186 -194
284 -325 462 -30 41 -49 70 -41 66 22 -14 221 -173 253 -203 90 -85 201 -245
287 -412 63 -124 117 -183 264 -287 191 -135 402 -249 422 -229 11 11 -33 48
-157 131 -171 117 -345 251 -391 303 -23 26 -61 87 -86 137 -54 107 -121 208
-199 300 -35 41 -53 70 -47 76 6 6 41 -32 93 -98 115 -146 238 -283 256 -283
28 0 13 44 -42 124 -67 96 -193 256 -242 308 -52 55 -36 66 31 21 43 -29 76
-65 137 -152 144 -202 292 -381 316 -381 31 0 10 50 -68 165 -44 66 -75 115
-67 109 8 -6 43 -32 78 -58 41 -30 81 -72 114 -119 114 -163 270 -347 293
-347 38 0 -10 91 -141 266 -24 32 -42 60 -40 62 11 11 87 -51 130 -106 104
-135 278 -292 322 -292 7 0 13 10 13 21 0 14 -35 58 -97 121 l-98 100 155 -81
c85 -44 180 -89 210 -101 30 -12 110 -53 178 -92 147 -84 351 -178 386 -178
42 0 31 27 -26 64 -29 18 -116 68 -193 111 -77 43 -142 79 -143 80 -2 2 31 20
73 40 110 53 168 48 365 -30 197 -78 415 -149 535 -175 68 -14 169 -24 313
-31 237 -11 268 -7 340 43 60 41 192 173 192 192 0 32 -41 14 -142 -61 -57
-42 -119 -83 -138 -90 -19 -6 -79 -12 -134 -13 -89 0 -118 5 -324 61 -277 74
-376 110 -562 206 -179 91 -223 99 -396 63 -180 -37 -274 -19 -394 74 -30 23
-85 56 -122 73 -90 42 -140 91 -273 267 -220 294 -333 370 -541 364 -150 -3
-159 4 -332 292 -104 173 -119 210 -103 253 21 56 157 56 335 0 103 -32 152
-60 198 -116 147 -177 444 -282 742 -262 165 12 219 9 271 -14 l45 -20 102 25
c130 32 145 27 234 -72 48 -54 90 -89 147 -122 44 -25 108 -72 143 -104 47
-42 78 -62 118 -73 74 -22 105 -59 195 -230 75 -143 115 -205 132 -205 16 0 0
48 -68 205 -35 83 -66 157 -67 165 -2 8 -7 37 -10 63 -10 64 -72 275 -87 293
-9 11 -15 12 -26 2 -17 -14 -12 -82 13 -179 18 -72 18 -72 -5 -60 -13 7 -20
26 -24 68 -7 61 -46 241 -72 331 -12 40 -20 53 -33 50 -12 -2 -18 -15 -20 -40
-4 -51 22 -199 52 -294 14 -43 23 -80 20 -83 -13 -13 -28 32 -70 210 -68 283
-86 343 -106 347 -15 3 -18 -4 -18 -45 0 -26 7 -84 14 -128 8 -44 18 -96 21
-115 3 -19 -10 15 -29 77 -20 61 -43 130 -52 152 -16 39 -36 52 -49 31 -12
-19 43 -265 82 -367 13 -33 -96 39 -161 109 -74 77 -125 104 -226 120 -106 17
-160 42 -220 103 -30 30 -62 55 -71 55 -10 0 -36 -16 -59 -35 -63 -53 -75 -48
-129 51 -43 80 -95 124 -173 149 -113 35 -138 47 -138 64 0 13 16 19 73 28 39
6 175 41 300 77 169 49 237 73 263 94 l34 27 -34 10 c-50 14 -51 20 -7 34 60
17 114 42 108 48 -3 3 -56 -7 -117 -22 -64 -15 -120 -23 -133 -19 l-22 7 23 8
c15 6 22 15 20 26 -4 20 -74 29 -235 32 -45 0 -84 5 -87 10 -3 5 34 12 82 15
136 11 157 17 157 46 0 29 22 28 -335 15 -113 -4 -203 -5 -200 -2 3 3 76 17
162 31 150 26 402 83 461 105 20 8 27 17 27 36 0 14 -6 28 -14 31 -8 3 -61 -6
-118 -20 -129 -32 -294 -46 -418 -36 -52 5 -95 9 -96 9 -2 2 9 61 11 61 2 0
46 9 99 20 65 13 149 21 263 23 175 4 247 18 267 50 8 12 8 22 0 34 -9 14 -36
16 -207 17 -108 1 -199 5 -202 8 -15 14 18 47 62 64 202 74 208 77 208 109 l0
30 -77 -3 c-64 -3 -82 0 -105 16 -15 11 -48 30 -73 42 -24 12 -69 46 -100 75
-61 58 -88 75 -119 75 -12 0 -21 5 -21 11 0 6 8 8 18 5 60 -18 164 -29 272
-30 140 -1 200 8 200 29 0 11 -13 13 -63 8 -73 -6 -268 11 -347 32 -53 14 -51
14 70 8 200 -11 195 -11 198 16 2 13 -2 27 -9 31 -6 5 -62 11 -123 16 l-111 7
71 18 c151 37 177 61 172 156 l-3 58 70 30 c41 18 74 39 79 51 9 19 15 13 58
-53 27 -41 69 -97 95 -124 50 -54 154 -126 218 -151 105 -41 129 -54 166 -90
24 -23 61 -83 98 -156 75 -150 101 -182 147 -182 35 0 94 24 94 38 0 4 -22 25
-50 45 -35 27 -59 55 -81 100 -61 120 -105 159 -319 278 -149 83 -217 150
-285 279 -27 52 -81 141 -118 197 -108 164 -109 168 -43 261 40 55 47 103 21
151 -17 33 -70 81 -90 81 -8 0 -40 -23 -72 -51 -106 -93 -206 -126 -331 -108
-111 16 -182 58 -182 109 0 33 41 72 137 133 93 59 123 103 123 178 0 55 -24
155 -41 174 -6 6 12 17 48 30 53 18 58 23 58 50 l0 30 -132 0 c-112 0 -134 3
-145 17 -7 9 -31 19 -53 21 -22 2 -3 4 42 5 96 2 136 14 131 40 -3 14 -22 19
-103 29 -55 6 -102 12 -104 12 -3 1 0 6 7 13 18 18 15 61 -9 131 -35 104 -18
164 75 263 89 95 122 185 69 192 -12 2 -81 -21 -155 -51 -151 -63 -205 -74
-268 -57 l-44 12 24 19 c14 10 77 56 140 101 167 120 210 164 291 300 111 187
225 291 345 314 47 9 77 49 104 136 46 151 114 250 248 360 124 103 180 210
189 364 6 80 -3 120 -22 106 -6 -4 -42 -47 -80 -97 -72 -94 -264 -292 -350
-362 l-49 -41 -7 -90 c-8 -116 -34 -163 -120 -221 -34 -23 -67 -41 -74 -41
-29 0 -99 -66 -141 -133 -54 -85 -149 -185 -219 -230 -43 -28 -68 -35 -195
-53 -80 -12 -146 -21 -147 -20 -2 1 80 52 182 112 192 113 217 136 182 171
-13 13 -26 11 -117 -26 -56 -23 -105 -41 -108 -41 -3 0 4 10 15 23 11 12 51
71 87 131 78 128 77 146 -7 117 -29 -10 -89 -37 -135 -60 -132 -66 -153 -43
-77 87 60 101 59 146 -1 180 -13 7 -8 25 36 113 110 218 182 303 326 383 49
27 143 83 208 124 149 93 241 136 345 161 45 11 93 29 108 41 28 21 116 116
263 279 41 46 136 136 211 201 149 130 215 199 264 275 18 28 41 58 52 67 27
24 116 54 203 67 43 7 90 22 117 38 63 37 70 23 39 -71 -45 -134 -141 -300
-216 -373 -18 -17 -51 -56 -74 -86 -22 -30 -109 -128 -191 -218 -173 -189
-215 -240 -215 -263 0 -32 55 10 208 158 258 251 389 411 472 576 38 75 90
225 90 259 0 9 18 65 40 124 22 58 53 164 69 235 55 243 114 348 294 528 90
88 137 144 177 210 51 84 156 204 377 430 90 93 119 104 149 59 16 -24 15 -27
-12 -68 -15 -23 -55 -73 -88 -112 -125 -143 -156 -200 -118 -213 16 -5 189
168 229 230 20 30 29 37 31 24 2 -9 -11 -31 -28 -49 -36 -36 -114 -151 -124
-183 -4 -13 -1 -26 7 -33 20 -16 56 15 114 97 28 39 49 60 51 51 1 -8 -16 -35
-38 -59 -46 -50 -95 -143 -86 -165 13 -36 59 -3 114 82 15 24 30 43 35 43 17
0 5 -38 -19 -61 -25 -22 -54 -76 -54 -98 0 -6 9 -15 20 -21 20 -11 32 -2 73
54 12 17 16 14 40 -37 15 -30 44 -74 65 -98 21 -24 51 -73 66 -109 16 -36 46
-100 67 -142 21 -43 52 -119 69 -170 35 -110 52 -139 72 -120 22 22 -23 220
-72 315 -35 69 -37 77 -20 77 24 0 73 80 68 112 -2 15 -11 24 -25 26 -17 3
-28 -8 -51 -48 -24 -42 -31 -48 -41 -36 -10 12 -4 24 28 68 50 65 68 113 51
133 -19 22 -46 2 -90 -67 -39 -59 -39 -59 -45 -31 -4 15 -8 32 -9 38 -1 5 22
45 51 89 57 86 83 150 66 167 -5 5 -17 7 -25 4 -17 -7 -84 -99 -113 -154 -12
-24 -20 -30 -27 -23 -8 8 4 33 40 86 62 88 123 212 115 232 -3 8 -11 14 -19
14 -17 0 -101 -113 -146 -195 -27 -50 -33 -56 -36 -37 -2 14 5 33 16 45 30 33
125 184 161 254 38 75 40 106 9 101 -13 -2 -39 -30 -72 -78 -92 -135 -88 -131
-72 -89 12 32 201 342 238 392 13 17 15 14 26 -33 7 -29 21 -65 32 -80 16 -23
21 -51 26 -159 8 -142 21 -184 44 -141 9 17 13 72 14 170 1 134 -1 147 -20
173 -12 15 -30 58 -39 97 -17 68 -16 72 5 172 34 158 103 319 174 403 l26 30
-26 -57 c-25 -58 -25 -78 1 -78 25 0 115 127 171 242 16 33 37 61 52 67 13 6
22 8 20 4 -2 -5 -24 -49 -50 -99 -55 -107 -98 -210 -98 -236 0 -11 7 -18 19
-18 13 0 32 20 58 62 49 79 56 54 14 -47 -34 -80 -39 -130 -16 -138 16 -7 46
26 65 73 7 16 15 30 19 30 3 0 16 -48 27 -107 11 -60 33 -133 47 -163 14 -30
31 -85 38 -122 12 -65 11 -69 -19 -150 -60 -157 -29 -171 45 -22 l47 94 -11
82 c-11 80 -11 82 16 118 14 20 37 60 50 88 14 29 28 52 33 52 5 0 6 -54 2
-123 -7 -122 -6 -123 24 -192 17 -39 38 -108 46 -155 24 -124 36 -162 49 -157
8 3 12 31 10 91 -1 108 -18 208 -43 256 -17 33 -19 57 -17 181 2 155 -10 200
-53 214 -27 9 -37 1 -65 -56 -14 -27 -26 -49 -28 -49 -1 0 -24 9 -52 19 l-50
19 -19 83 c-14 64 -19 127 -20 266 l-1 182 41 58 c49 70 92 96 136 81 44 -16
184 -180 208 -246 33 -89 22 -297 -24 -434 -33 -96 -38 -171 -14 -176 12 -2
24 10 39 39 l22 43 24 -47 24 -48 -22 -270 c-18 -214 -20 -272 -10 -282 31
-31 62 95 85 349 12 136 13 138 25 96 10 -36 9 -56 -4 -120 -9 -42 -19 -143
-22 -224 -5 -133 -4 -148 11 -148 23 0 31 28 53 181 l19 134 17 -51 c16 -46
16 -56 3 -106 -35 -135 -47 -376 -19 -386 22 -7 32 34 70 278 5 34 7 32 32
-44 26 -76 26 -81 15 -165 -7 -47 -13 -87 -13 -89 -1 -1 -18 0 -38 3 -21 3
-51 2 -67 -3 -36 -10 -55 -60 -88 -228 -19 -98 -25 -114 -42 -116 -16 -2 -24
-16 -36 -60 -8 -32 -18 -58 -23 -58 -5 0 -7 10 -4 23 13 51 37 202 37 233 0
39 -18 54 -36 29 -21 -28 -58 -172 -74 -282 0 -2 -10 -3 -21 -3 -19 0 -21 4
-16 33 4 17 15 81 27 141 26 141 27 199 3 194 -23 -4 -54 -99 -87 -260 -13
-66 -27 -122 -31 -126 -11 -11 -37 31 -32 53 3 11 19 74 36 140 37 140 45 237
20 243 -20 4 -32 -23 -70 -160 -16 -57 -27 -89 -25 -72 29 195 32 274 9 281
-19 7 -34 -33 -58 -149 -18 -91 -24 -107 -34 -94 -10 12 -10 34 3 113 24 148
24 177 3 181 -24 5 -44 -46 -73 -186 -12 -63 -27 -119 -32 -125 -16 -20 -68
-196 -87 -291 -9 -49 -23 -136 -30 -195 -13 -111 -15 -112 -34 -19 -14 65 -31
87 -51 63 -12 -15 -11 -84 5 -220 5 -37 4 -38 -6 -12 -12 31 -35 36 -44 8 -3
-11 1 -76 10 -144 18 -152 18 -142 0 -127 -39 32 -41 -31 -10 -275 5 -36 4
-35 -13 15 -18 55 -46 77 -58 46 -7 -18 13 -176 30 -244 12 -42 11 -53 -4 -81
l-16 -33 -23 84 c-12 45 -26 89 -30 97 -16 25 -41 4 -41 -32 0 -41 26 -199 41
-243 7 -24 6 -41 -4 -65 l-14 -34 -16 91 c-9 51 -26 122 -37 158 -17 54 -25
66 -42 66 -20 0 -21 -4 -15 -72 5 -62 22 -154 54 -302 4 -21 3 -27 -5 -22 -7
4 -12 17 -12 30 0 34 -37 167 -50 180 -8 8 -15 6 -26 -9 -16 -21 -13 -67 12
-194 13 -68 13 -76 -2 -93 -10 -10 -20 -18 -24 -18 -4 0 -15 39 -24 87 -24
124 -67 247 -87 251 -26 5 -30 -23 -14 -111 18 -102 18 -105 2 -82 -9 11 -19
15 -27 10 -18 -11 -7 -169 20 -269 20 -76 21 -83 6 -150 -9 -38 -15 -71 -13
-73 2 -2 24 23 48 54 76 98 169 203 195 220 19 12 30 13 48 5 38 -17 40 -61 5
-170 -18 -53 -51 -164 -75 -247 -39 -138 -42 -151 -27 -167 22 -24 31 -23 39
7 3 13 84 133 179 265 160 224 265 396 265 433 0 23 -18 25 -84 9 -33 -7 -75
-11 -93 -7 -34 6 -73 46 -73 75 0 47 163 352 213 398 36 34 94 39 150 14 86
-38 98 -110 33 -207 -19 -29 -56 -92 -82 -140 -43 -80 -45 -88 -31 -103 15
-15 20 -13 59 15 47 33 134 147 198 260 44 76 49 100 69 318 6 61 17 130 26
155 9 25 21 90 26 145 5 55 17 124 26 155 22 75 81 192 137 268 50 68 90 92
150 92 31 0 38 -5 55 -38 39 -76 37 -97 -19 -243 -28 -74 -91 -215 -140 -314
-98 -198 -110 -232 -84 -242 9 -3 20 0 25 8 5 8 39 64 75 124 64 108 65 109
59 64 -5 -31 -3 -49 4 -54 25 -15 56 36 95 152 18 55 56 102 43 53 -23 -82
-29 -122 -18 -133 25 -25 77 69 122 221 19 64 21 45 3 -38 -16 -79 -14 -100
11 -100 20 0 45 56 84 189 34 119 57 156 47 76 -17 -139 -19 -212 -6 -220 21
-13 37 19 59 115 27 112 26 136 -3 212 -29 73 -56 189 -56 235 0 58 39 141 95
201 29 31 82 93 117 137 35 44 72 81 83 83 13 2 34 -12 57 -35 l38 -39 -31
-119 c-16 -66 -33 -151 -36 -189 -6 -63 -5 -68 13 -64 25 4 56 83 85 218 13
58 24 106 25 108 5 8 101 -48 121 -70 48 -51 55 -90 56 -293 0 -195 -14 -302
-50 -385 -12 -28 -16 -97 -18 -365 -5 -481 -14 -539 -147 -870 -127 -315 -220
-486 -316 -578 l-39 -38 -91 41 c-51 22 -100 40 -109 38 -26 -4 -45 59 -32
107 l11 37 25 -23 25 -24 -24 -5 c-34 -8 -35 -43 -2 -69 28 -22 88 -29 99 -11
3 6 19 10 35 10 46 0 60 10 60 41 0 24 -8 32 -69 64 -38 20 -79 47 -91 60 -21
22 -22 27 -10 75 7 30 10 75 7 104 -7 52 -76 276 -86 276 -3 0 -31 -46 -61
-101 -30 -56 -65 -119 -77 -141 -13 -22 -26 -63 -29 -90 -6 -46 -11 -53 -71
-101 -52 -42 -63 -56 -61 -76 2 -20 11 -28 41 -36 l38 -11 -26 -24 c-44 -41
-28 -89 29 -91 29 -1 27 -3 -24 -26 -60 -27 -71 -38 -68 -68 1 -11 -6 -35 -16
-54 -17 -32 -17 -35 2 -82 l21 -48 -52 -19 c-29 -11 -62 -22 -74 -26 -26 -8
-37 -34 -23 -51 6 -7 41 -19 77 -25 l67 -13 -57 -29 c-46 -23 -57 -33 -57 -53
0 -16 9 -29 27 -38 26 -14 26 -15 -43 -30 -38 -9 -86 -19 -107 -22 -28 -6 -39
-13 -43 -32 -4 -15 -1 -30 7 -38 15 -15 118 -34 189 -36 l45 0 -45 -22 c-39
-20 -45 -27 -45 -54 0 -31 -2 -33 -75 -55 -60 -19 -76 -28 -78 -45 -3 -18 4
-23 45 -31 46 -10 105 -4 132 12 7 5 11 -2 11 -18 0 -22 -6 -26 -47 -32 -59
-10 -115 -9 -169 1 -60 11 -79 -11 -68 -79 18 -111 1 -173 -74 -284 -22 -31
-69 -103 -105 -159 -37 -57 -108 -158 -158 -225 -122 -163 -133 -188 -127
-296 l5 -85 -41 -17 c-87 -38 -82 -42 -78 65 4 82 2 96 -12 101 -25 10 -34 -5
-47 -71 -18 -93 -30 -90 -23 5 5 68 3 89 -9 105 -12 16 -18 17 -28 8 -13 -13
-38 -129 -39 -180 0 -22 -7 -36 -21 -44 -21 -11 -21 -10 -15 32 22 155 33 431
20 498 -7 34 -30 42 -38 14 -14 -51 -46 -435 -46 -554 0 -76 -11 -90 -118
-152 l-63 -36 7 62 c7 82 -5 142 -31 142 -23 0 -31 -31 -41 -162 -6 -90 -8
-93 -40 -118 l-33 -25 0 96 c1 158 -39 155 -61 -4 -27 -194 -37 -237 -70 -290
-18 -29 -34 -51 -36 -49 -3 2 0 35 6 73 14 96 13 251 -2 260 -6 4 -17 -1 -23
-10 -16 -21 -44 -205 -48 -319 -2 -56 -8 -92 -17 -100 -7 -6 -10 -7 -7 -2 9
17 27 268 20 293 -7 29 -31 28 -42 0 -15 -40 -33 -156 -41 -256 l-7 -97 -2
100 c-1 104 -9 132 -34 122 -22 -8 -27 -46 -34 -223 -5 -148 -4 -164 13 -188
11 -14 22 -26 25 -26 3 0 19 24 34 53 45 83 84 136 166 224 44 47 92 112 113
153 45 86 92 132 217 216 113 75 205 119 354 169 60 20 126 45 147 56 35 18
37 18 31 2 -18 -50 -87 -138 -196 -253 -127 -133 -184 -212 -194 -274 -7 -47
15 -49 42 -3 10 17 87 102 170 187 163 168 201 219 240 325 14 39 36 90 50
115 13 25 44 108 70 184 28 86 73 193 119 280 40 78 102 203 137 279 35 75 67
137 70 137 9 0 123 -129 118 -134 -2 -1 -34 -8 -72 -15 -97 -17 -117 -26 -117
-55 0 -19 10 -28 48 -44 26 -11 61 -23 77 -27 70 -16 69 -15 46 -32 -27 -18
-27 -48 -1 -66 19 -13 10 -17 -110 -47 -157 -39 -193 -62 -188 -119 3 -36 3
-36 48 -34 63 2 239 -18 245 -27 10 -16 -59 -31 -255 -58 -50 -7 -55 -9 -55
-32 0 -20 11 -31 51 -52 98 -53 236 -72 343 -47 86 19 60 -8 -31 -34 -136 -38
-210 -49 -335 -51 -119 -1 -137 -8 -131 -47 5 -35 76 -67 178 -80 80 -9 87
-12 128 -52 23 -22 42 -45 42 -49 0 -4 -30 -8 -67 -8 -108 0 -347 -22 -360
-32 -7 -6 -13 -19 -13 -29 0 -28 15 -33 150 -50 l125 -15 -98 -8 c-54 -5 -118
-6 -143 -3 -31 3 -44 1 -44 -8 0 -21 25 -35 75 -41 44 -7 48 -9 67 -53 10 -25
35 -62 55 -83 l35 -36 -85 -7 c-46 -4 -112 -6 -147 -4 -52 3 -64 1 -74 -14
-16 -26 16 -50 115 -82 44 -15 79 -28 77 -29 -2 -1 -72 2 -156 7 -84 5 -159 6
-167 3 -8 -3 -15 -17 -15 -31 0 -21 9 -30 53 -50 28 -14 57 -25 64 -25 16 0
22 -11 39 -77 8 -32 23 -79 34 -105 11 -26 20 -49 20 -52 0 -3 -19 -6 -42 -6
-109 0 -154 -25 -110 -60 12 -10 81 -37 154 -61 l133 -44 -110 -5 c-61 -3
-116 -9 -122 -13 -17 -10 -17 -52 0 -65 12 -11 175 -43 297 -59 l65 -9 -75
-13 c-41 -8 -146 -24 -232 -35 -87 -12 -162 -26 -169 -33 -25 -25 0 -50 60
-62 l58 -11 -1 -53 c-1 -28 3 -84 7 -123 l8 -72 -160 -7 c-164 -7 -179 -12
-165 -50 10 -25 149 -70 244 -77 34 -3 33 -4 -25 -23 -48 -16 -61 -25 -63 -44
-5 -32 10 -44 60 -50 42 -6 43 -7 39 -41 -4 -41 -10 -46 -64 -54 -60 -10 -79
-23 -75 -54 3 -23 10 -28 58 -39 30 -6 120 -19 200 -28 80 -9 147 -19 149 -21
9 -9 -289 -3 -340 6 -30 5 -80 23 -113 40 -32 16 -62 27 -67 24 -63 -38 206
-224 360 -249 29 -5 39 -10 30 -15 -23 -12 -122 -34 -147 -32 -15 1 -76 52
-170 143 l-147 140 -3 -35 c-5 -62 75 -351 118 -424 12 -19 19 -36 18 -38 -2
-1 -52 -9 -112 -18 -110 -15 -127 -23 -119 -56 6 -22 95 -66 170 -84 63 -14
63 -14 -40 -32 -43 -7 -63 -34 -48 -63 8 -15 27 -20 96 -26 47 -4 85 -11 85
-15 0 -15 -96 -107 -130 -125 -50 -26 -96 -24 -124 6 -63 64 -97 199 -177 697
-13 78 -26 142 -29 142 -13 0 -42 -96 -66 -217 -29 -154 -46 -208 -76 -240
-28 -30 -42 -29 -149 13 -50 19 -93 33 -96 31 -9 -10 206 -403 231 -421 23
-17 30 -18 59 -8 57 20 108 14 183 -22 74 -35 114 -74 114 -110 0 -11 -12 -57
-25 -101 -47 -148 -70 -335 -42 -335 6 0 84 131 172 290 88 160 170 303 182
318 l21 27 164 3 c121 3 160 1 152 -8 -19 -20 -152 -60 -237 -72 -89 -13 -107
-21 -107 -49 0 -28 17 -33 137 -39 l112 -5 -41 -65 c-51 -80 -101 -193 -162
-370 -96 -276 -164 -380 -411 -625 -99 -99 -208 -216 -241 -260 -114 -149
-196 -206 -271 -189 -15 3 -58 22 -96 40 -75 38 -102 41 -133 16 -21 -17 -142
-194 -258 -378 l-57 -92 -88 -40 c-116 -53 -144 -60 -284 -71 -122 -9 -198
-34 -221 -73 -16 -26 -1 -32 51 -18 26 7 114 16 195 19 l148 7 92 46 c51 26
108 49 126 52 75 13 153 93 246 252 19 33 53 77 76 97 48 44 83 47 192 17 141
-39 194 -22 366 116 154 123 291 282 400 464 l63 105 -3 -65 c-3 -59 -1 -65
17 -65 15 0 25 14 42 60 20 54 22 57 22 27 1 -29 4 -33 23 -30 19 2 28 19 54
103 l32 100 1 -77 c1 -71 3 -78 21 -78 20 0 24 10 55 143 16 68 19 72 181 258
l165 189 167 112 c116 78 191 137 245 192 49 52 81 76 87 70 6 -6 -1 -56 -20
-139 -33 -141 -70 -226 -247 -553 -124 -231 -162 -270 -318 -331 -105 -40
-202 -104 -355 -232 -69 -57 -137 -113 -151 -124 -15 -12 -33 -34 -42 -50 -18
-35 -150 -156 -220 -203 -27 -18 -58 -44 -69 -57 -27 -35 -64 -52 -140 -65
-79 -14 -128 -41 -128 -71 0 -17 4 -20 23 -15 12 4 63 12 112 17 65 7 102 17
133 35 23 14 42 29 42 34 0 5 33 32 74 59 41 28 93 73 117 101 27 32 50 50 64
50 13 0 42 7 65 15 57 20 74 19 105 -8 l26 -22 -35 -83 c-20 -46 -36 -95 -36
-108 0 -42 -26 -90 -66 -120 -44 -34 -146 -159 -174 -215 -19 -36 -27 -79 -15
-79 5 0 271 266 295 295 5 7 14 36 20 66 5 30 26 99 45 154 33 93 42 107 123
198 48 54 116 123 152 153 91 78 418 294 445 294 12 0 30 -9 39 -19 17 -19 17
-24 -4 -108 -25 -97 -24 -169 5 -338 20 -115 33 -155 51 -155 18 0 18 51 3
255 -12 148 -12 151 14 248 28 101 66 201 75 193 2 -3 10 -45 18 -93 16 -111
35 -168 54 -168 23 0 24 58 5 245 -11 110 -13 173 -7 190 8 21 10 16 16 -40
16 -152 38 -209 66 -175 10 12 11 50 4 176 -6 111 -6 163 2 169 7 6 14 -20 21
-81 12 -94 24 -122 49 -112 9 3 14 22 15 57 l1 51 12 -34 c14 -38 34 -51 47
-30 5 8 9 57 9 110 0 75 3 98 14 102 16 7 18 3 36 -90 15 -75 30 -99 55 -89
15 6 17 15 11 79 -4 39 -11 98 -17 130 -12 69 -4 152 22 223 35 92 86 120 247
134 59 5 131 17 160 25 66 20 234 92 422 181 201 95 273 99 388 19 37 -25 74
-38 155 -56 59 -12 107 -25 107 -29 0 -3 -11 -39 -24 -80 -20 -60 -32 -81 -62
-105 -85 -68 -126 -118 -171 -211 -25 -52 -52 -98 -62 -103 -9 -5 -38 -12 -66
-16 -67 -10 -126 -39 -187 -94 -90 -80 -167 -201 -128 -201 5 0 43 34 84 74
112 112 149 132 278 151 57 9 95 48 144 151 35 74 54 101 96 136 92 77 102 91
131 185 14 50 43 119 63 154 20 35 44 85 55 111 22 56 97 208 103 208 2 0 -9
-41 -25 -90 -32 -99 -38 -160 -15 -160 8 0 23 20 34 44 39 81 172 398 172 407
0 5 42 52 94 103 100 100 151 164 210 265 60 103 120 176 276 336 80 83 157
165 170 184 l23 33 -85 -7 c-54 -5 -105 -3 -142 5 -52 11 -59 15 -72 46 -8 18
-14 42 -14 52 0 24 32 53 56 52 11 0 71 -4 135 -8 115 -7 120 -9 185 -57 19
-14 148 11 214 41 30 14 72 38 93 55 54 43 101 61 143 53 81 -15 159 45 239
182 78 135 136 175 202 141 58 -31 58 -36 1 -142 -62 -114 -106 -162 -243
-267 -67 -51 -117 -99 -151 -145 -156 -210 -157 -213 -127 -213 20 0 82 62
176 173 26 31 94 89 150 129 138 98 180 145 262 295 92 168 182 261 309 322
90 43 152 98 269 238 28 34 52 61 54 60 1 -1 -10 -40 -23 -87 -25 -84 -28
-149 -9 -152 17 -4 51 69 110 237 47 134 88 215 101 202 2 -2 -15 -54 -37
-117 -44 -126 -81 -268 -73 -282 20 -32 48 10 104 155 l28 72 -1 -50 c-3 -72
20 -66 60 15 l32 65 -2 -40 c-2 -30 2 -40 16 -43 21 -4 52 60 105 225 32 98
40 114 64 122 l27 9 -20 -46 c-29 -66 -69 -209 -69 -243 0 -22 5 -29 19 -29
22 0 74 116 119 264 25 81 30 90 65 107 20 11 37 17 37 14 0 -3 -9 -23 -20
-45 -11 -21 -29 -74 -41 -117 -28 -101 -46 -134 -113 -211 -78 -88 -105 -129
-175 -270 -74 -147 -103 -220 -95 -233 11 -19 45 24 116 146 102 173 129 214
196 289 76 86 107 144 133 248 18 72 86 234 95 225 2 -1 -4 -30 -12 -62 -22
-83 -24 -230 -4 -230 11 0 30 57 73 210 53 191 61 212 90 236 18 15 33 26 34
25 1 0 -9 -45 -22 -100 -14 -54 -26 -119 -27 -145 -3 -40 -1 -46 17 -46 16 0
26 16 47 75 l27 75 0 -47 c1 -58 25 -66 46 -15 19 46 61 215 79 316 12 70 19
88 47 117 35 36 47 38 30 6 -28 -53 -77 -305 -65 -336 7 -17 30 -21 38 -7 4 5
31 100 61 212 30 111 60 206 67 211 33 20 34 4 6 -104 -36 -146 -47 -248 -26
-248 9 0 20 6 26 13 17 21 61 173 80 274 l17 96 159 153 c229 221 268 281 288
452 13 117 3 388 -16 395 -11 5 -88 -207 -155 -428 -40 -133 -86 -207 -206
-331 -80 -83 -106 -104 -127 -104 -23 0 -28 4 -28 25 0 14 -8 29 -19 35 -27
14 -28 13 -45 -17 l-15 -28 -1 41 c0 82 -48 81 -69 -1 -6 -25 -13 -45 -16 -45
-3 0 -2 33 1 74 7 78 -4 102 -33 73 -17 -17 -53 -138 -53 -177 0 -27 -39 -87
-102 -157 -21 -23 -54 -68 -75 -100 -52 -82 -149 -181 -206 -210 -62 -31 -166
-57 -344 -87 -239 -40 -309 -87 -393 -263 -27 -55 -62 -123 -79 -150 l-31 -48
0 35 c0 74 -21 307 -30 341 -13 47 -52 85 -94 93 -39 8 -63 31 -110 112 -52
89 -97 127 -236 199 -69 36 -145 83 -169 105 -48 45 -65 45 -49 -2 17 -49 84
-108 192 -168 129 -72 163 -103 211 -190 44 -81 94 -130 130 -130 14 0 34 -9
44 -19 21 -21 25 -46 50 -288 l17 -166 -49 -54 c-53 -58 -106 -93 -177 -118
-87 -31 -373 -85 -452 -85 -114 0 -122 -5 -172 -112 -56 -121 -83 -151 -175
-197 -75 -38 -77 -38 -144 -29 -114 15 -120 22 -38 42 112 27 143 43 139 69
-2 16 -13 24 -40 31 l-36 9 45 41 c43 39 45 43 29 58 -15 16 -15 18 4 28 15 8
20 19 18 38 -3 26 -8 28 -103 48 -76 15 -94 22 -75 27 14 4 41 7 61 7 40 0 63
19 57 46 -3 16 -31 31 -143 75 l-30 11 25 7 c17 5 26 15 28 32 4 32 -8 41 -85
64 -57 16 -61 20 -52 38 10 17 18 19 67 13 59 -6 75 -2 84 24 10 30 -13 49
-86 70 -65 20 -75 26 -78 48 -3 21 -15 30 -93 59 -100 38 -118 49 -64 39 26
-5 40 -2 48 8 19 23 6 48 -39 76 -22 14 -40 27 -40 30 0 17 34 50 51 50 32 0
59 19 59 40 0 14 -23 33 -77 65 -83 48 -81 58 5 25 68 -26 82 -25 82 4 0 19
-10 28 -47 44 -27 11 -68 26 -93 32 -53 14 -211 78 -224 91 -12 11 54 39 94
39 35 0 101 25 112 43 21 32 8 73 -37 117 -26 26 -45 53 -45 66 0 15 -16 34
-50 59 -28 21 -49 39 -47 41 2 2 27 -6 56 -17 58 -22 85 -18 102 12 16 30 4
51 -48 84 -27 16 -82 62 -124 102 l-76 73 -6 72 c-7 85 -45 242 -77 316 -18
42 -27 52 -46 52 -30 0 -46 -24 -84 -134 -17 -48 -47 -117 -66 -153 -24 -46
-34 -78 -34 -109 0 -42 -3 -46 -56 -87 -106 -79 -110 -84 -98 -104 6 -9 22
-20 35 -24 22 -6 21 -7 -18 -23 -23 -10 -44 -24 -47 -33 -7 -17 10 -53 24 -53
23 0 7 -19 -24 -30 -63 -21 -100 -83 -72 -125 14 -22 43 -35 109 -50 40 -8 20
-30 -49 -52 -57 -18 -59 -20 -44 -43 6 -10 2 -24 -16 -47 -46 -60 -27 -83 68
-83 37 0 68 -4 68 -8 0 -5 -64 -26 -142 -47 -79 -21 -151 -42 -160 -47 -21
-10 -24 -51 -5 -67 11 -8 115 -29 162 -31 6 0 2 -5 -7 -11 -10 -5 -18 -17 -18
-24 0 -32 95 -8 180 44 l48 29 22 -30 c27 -37 28 -36 -100 -79 -61 -20 -124
-33 -175 -36 -44 -3 -83 -11 -87 -17 -4 -6 -29 -15 -55 -21 l-48 -11 3 -54 c2
-30 7 -59 11 -63 5 -5 33 -2 64 6 l56 15 25 -39 26 -38 -38 -10 c-20 -6 -69
-17 -109 -26 -68 -15 -92 -33 -77 -56 3 -5 23 -9 46 -9 34 0 39 -2 33 -17 -4
-10 -10 -33 -14 -52 -5 -29 -12 -36 -59 -53 -56 -21 -72 -40 -55 -67 5 -9 7
-25 3 -36 -10 -28 -1 -45 29 -56 l26 -10 -32 -15 c-36 -18 -73 -50 -73 -64 0
-14 22 -12 64 5 42 18 44 11 15 -47 -12 -23 -27 -58 -33 -77 -11 -31 -18 -36
-72 -50 -55 -15 -59 -18 -59 -46 0 -37 24 -50 126 -66 66 -10 109 -29 109 -49
0 -4 -28 -13 -62 -20 -73 -15 -90 -26 -86 -54 2 -15 14 -23 48 -30 38 -8 41
-10 21 -15 -33 -9 -49 -36 -35 -58 15 -23 53 -32 169 -40 87 -5 103 -9 121
-29 35 -37 96 -49 190 -35 44 6 86 11 92 11 20 0 -15 -60 -41 -69 -48 -19
-228 -43 -346 -47 -149 -6 -168 -14 -212 -98 -45 -85 -116 -182 -153 -210 -70
-53 -156 -52 -217 2 l-30 27 28 52 c34 64 29 76 -48 116 -70 37 -83 50 -74 77
4 12 67 66 141 120 172 128 207 160 245 226 29 51 31 74 7 74 -6 0 -40 -22
-77 -49 -36 -26 -76 -53 -88 -60 -38 -20 -90 -13 -149 20 -70 40 -133 38 -190
-6 -47 -36 -149 -68 -173 -56 -65 35 -31 78 91 115 46 14 93 33 106 41 38 27
55 72 49 132 -5 48 -4 53 14 53 10 0 19 4 19 9 0 12 -36 21 -90 22 l-45 0 33
16 c25 13 32 23 32 45 0 36 -31 50 -117 52 -35 0 -63 4 -63 8 0 3 12 21 26 38
31 36 80 62 148 79 100 25 133 63 120 140 -14 82 -37 93 -149 66 -40 -10 -61
-11 -66 -4 -3 6 -46 12 -95 13 -64 2 -110 10 -164 28 -41 14 -68 28 -60 30 8
3 119 19 245 34 l230 29 0 35 c0 34 -1 35 -40 34 -22 0 -117 -6 -211 -14 -137
-10 -195 -11 -287 -1 -97 9 -189 28 -152 30 6 1 106 12 223 25 245 28 281 42
333 124 36 57 36 70 2 78 -16 3 -34 8 -42 10 -8 3 -80 -1 -160 -7 -126 -9
-152 -9 -186 4 l-40 16 35 0 c20 1 41 6 47 12 7 7 88 15 209 20 197 8 213 12
214 46 0 6 -7 19 -16 27 -12 13 -39 16 -127 16 -114 0 -220 12 -292 32 l-40
11 50 17 c36 12 54 25 65 46 8 16 19 32 23 35 5 4 4 15 -2 25 -10 19 -41 154
-41 180 0 9 19 14 68 16 59 3 67 5 70 24 2 11 -3 26 -10 32 -8 6 -82 19 -165
29 l-152 17 34 32 c19 17 35 41 35 51 0 17 9 21 66 27 61 6 134 28 134 40 0 3
-9 20 -20 40 -19 31 -28 36 -98 51 -84 18 -102 32 -102 81 0 32 1 33 38 27 20
-3 69 -16 107 -30 90 -32 100 -32 100 -8 0 14 -17 28 -60 50 -58 30 -60 32
-57 68 3 32 -1 39 -30 57 -42 25 -32 25 33 0 39 -16 54 -18 65 -9 37 31 7 60
-95 94 l-80 26 25 36 c13 20 24 41 24 48 0 9 27 11 103 7 93 -4 101 -3 87 12
-9 8 -52 23 -97 33 -74 15 -80 18 -69 35 18 29 -3 49 -80 77 -78 29 -65 37 33
22 72 -11 93 -4 93 30 0 23 -34 45 -84 55 -48 9 -32 19 47 29 55 6 57 8 57 35
0 28 -3 30 -80 46 l-80 17 0 64 c0 63 0 63 29 63 16 0 36 3 45 6 21 8 21 40 0
52 -15 8 -15 10 0 15 26 10 19 45 -11 61 -16 8 -60 24 -100 36 l-72 22 46 59
c30 38 46 68 46 86 -1 16 -2 52 -3 80 -3 78 23 113 114 157 121 57 180 123
207 231 9 37 61 122 192 319 99 148 193 284 209 302 36 41 91 60 130 45 l26
-10 -42 -133 c-62 -191 -89 -254 -168 -380 -150 -242 -261 -453 -289 -548 -7
-25 -28 -66 -46 -91 -48 -67 -60 -106 -39 -127 14 -15 18 -14 44 11 16 16 39
51 52 80 51 115 105 214 141 257 20 25 72 101 114 170 121 194 146 228 245
333 120 127 185 161 223 119 31 -34 39 -79 47 -242 5 -99 17 -207 30 -270 36
-176 17 -223 -142 -356 -90 -75 -128 -124 -197 -256 -30 -57 -71 -129 -92
-160 -43 -63 -47 -78 -23 -78 43 0 83 50 218 272 28 47 75 102 119 143 40 37
86 86 102 110 26 36 174 179 359 346 136 122 218 106 318 -66 56 -94 217 -358
234 -382 16 -23 16 -23 -17 -17 -58 10 -182 42 -228 59 -55 19 -104 19 -141 0
-51 -26 -134 -145 -102 -145 4 0 30 15 57 33 102 68 84 65 189 29 146 -49 244
-62 446 -60 l175 3 65 -46 c109 -78 342 -209 370 -209 15 0 41 5 58 11 27 9
39 7 74 -10 69 -34 155 -117 184 -176 24 -52 63 -102 94 -121 9 -5 36 -38 62
-74 66 -95 137 -170 159 -170 32 0 22 40 -31 119 -47 69 -51 80 -60 165 -6 50
-26 223 -46 385 -19 161 -32 296 -29 299 3 3 20 -9 38 -26 32 -31 34 -39 46
-140 21 -190 86 -553 110 -614 12 -32 27 -36 36 -9 11 34 -63 561 -91 656 -6
18 -4 18 20 -4 21 -20 26 -34 26 -70 0 -93 78 -563 117 -703 9 -35 21 -58 29
-58 8 0 15 6 15 13 8 70 -34 363 -97 682 -6 26 -1 23 33 -26 34 -47 41 -67 47
-125 23 -215 93 -605 136 -744 27 -89 64 -129 167 -186 78 -41 122 -55 378
-120 160 -40 312 -79 339 -88 54 -17 61 -15 69 13 4 16 -11 26 -82 59 -65 31
-136 52 -296 87 -212 47 -289 71 -382 118 -28 14 -53 23 -57 20 -9 -9 -36 18
-56 56 -10 20 -43 169 -74 331 -31 162 -63 328 -71 369 -20 98 -20 97 23 65
20 -15 38 -28 39 -29 1 0 9 -46 17 -101 25 -162 73 -385 98 -446 17 -46 38
-35 38 20 0 56 -32 255 -60 377 -11 48 -18 90 -15 93 8 8 9 4 37 -138 35 -175
87 -334 111 -338 14 -3 17 4 17 37 0 42 -44 263 -61 308 -17 46 -3 35 54 -39
52 -69 55 -78 66 -158 7 -47 24 -137 37 -200 55 -247 100 -190 55 69 l-17 104
45 -52 c50 -56 71 -64 71 -27 0 59 -304 464 -396 527 -11 8 -32 34 -47 59 -40
69 -88 121 -261 288 -172 166 -224 206 -362 275 -139 70 -150 86 -219 330 -63
225 -79 267 -120 315 -34 40 -72 61 -148 78 -141 33 -210 105 -277 292 -14 38
-34 72 -52 87 l-29 25 28 11 c19 8 79 9 181 5 172 -6 227 1 318 46 80 39 153
104 208 186 24 37 61 83 81 102 l37 35 -45 -90 c-24 -49 -57 -123 -73 -163
-27 -68 -40 -84 -156 -200 -71 -69 -128 -132 -128 -138 0 -24 21 -25 56 -4 59
37 215 168 240 202 13 17 43 90 66 162 l43 130 129 133 c108 112 127 135 116
148 -17 20 -24 19 -58 -10 -46 -38 -51 -30 -8 14 l39 40 31 -33 c17 -18 36
-35 42 -37 6 -2 23 -29 37 -59 15 -30 41 -79 58 -108 24 -40 33 -71 40 -133
12 -101 26 -136 83 -197 49 -53 70 -93 81 -159 14 -90 48 -60 42 37 -5 74 -26
121 -86 193 -33 40 -41 57 -45 105 -11 104 -26 146 -81 227 -58 85 -63 95 -42
95 6 0 28 -30 47 -68 19 -37 60 -93 92 -126 l57 -59 75 5 c74 5 75 5 60 -16
-14 -20 -12 -22 68 -48 50 -17 85 -24 92 -19 7 6 41 -26 98 -92 111 -129 183
-200 198 -195 16 5 -38 83 -180 262 -63 79 -133 156 -155 171 -42 28 -44 28
-175 9 -38 -5 -50 -2 -74 17 -38 30 -100 127 -126 197 -12 31 -27 60 -33 64
-6 4 -26 -2 -43 -13 -44 -27 -56 -24 -97 21 -59 66 -83 58 -194 -68 -43 -49
-106 -112 -140 -141 -39 -32 -84 -83 -119 -137 -64 -97 -139 -162 -224 -196
-46 -18 -84 -22 -235 -28 -157 -5 -185 -9 -221 -27 -22 -12 -46 -28 -52 -36
-7 -8 -37 -18 -67 -22 -116 -14 -215 43 -306 177 -53 77 -85 98 -171 110 -40
5 -84 16 -98 23 -37 20 -81 70 -133 155 -26 41 -108 145 -183 230 -206 234
-282 327 -340 416 -111 170 -176 339 -214 559 -26 146 -55 234 -110 326 -40
67 -83 114 -271 294 -60 57 -114 124 -189 235 -58 85 -136 193 -174 240 -38
47 -105 139 -149 205 -85 127 -164 218 -209 241 -35 18 -106 17 -138 -1 -36
-20 -83 -18 -113 5 -14 11 -45 48 -70 83 -56 78 -148 165 -301 285 -103 80
-123 92 -158 92 -34 0 -45 -6 -88 -52z m714 -644 c8 -3 12 -12 10 -19 -3 -8
-14 -85 -23 -172 l-18 -158 -15 37 c-15 33 -15 45 3 145 10 59 19 123 19 141
0 34 1 35 24 26z m-98 -71 l-11 -58 -3 43 c-3 35 9 72 23 72 1 0 -3 -26 -9
-57z m173 -100 c-2 -53 -27 -198 -28 -162 -2 63 12 189 20 189 5 0 9 -12 8
-27z m90 -32 c11 -7 10 -33 -8 -152 -11 -79 -23 -180 -26 -224 -3 -44 -9 -91
-12 -105 -5 -24 -6 -24 -18 10 -10 28 -9 54 1 130 8 52 17 152 20 223 7 126
11 138 43 118z m100 -74 c21 -24 21 -25 7 -118 -9 -52 -25 -181 -36 -288 -11
-107 -22 -196 -24 -199 -2 -2 -15 12 -28 32 -24 34 -24 38 -12 98 16 81 42
287 50 406 4 50 10 92 14 92 3 0 16 -11 29 -23z m105 -146 c-14 -34 -23 -92
-39 -246 -9 -88 -19 -190 -23 -227 -5 -52 -10 -66 -20 -59 -11 6 -10 40 7 182
11 96 23 217 26 269 4 52 9 106 11 120 l6 25 19 -24 c12 -14 17 -31 13 -40z
m-328 -59 c-11 -10 -12 3 -7 58 l6 55 3 -54 c2 -29 1 -56 -2 -59z m395 -175
c-5 -51 -13 -156 -17 -234 l-7 -141 -24 11 c-22 10 -24 15 -19 56 10 77 25
250 32 371 l7 115 19 -43 c17 -38 18 -53 9 -135z m99 -33 c-6 -43 -13 -150
-17 -236 -3 -87 -9 -158 -12 -158 -29 1 -32 19 -21 145 5 70 10 172 10 226 0
94 1 98 23 101 12 2 23 3 24 3 2 -1 -2 -37 -7 -81z m97 43 c20 -17 20 -22 8
-41 -15 -23 -35 -231 -35 -364 0 -55 -3 -73 -12 -69 -10 3 -12 35 -8 133 3 71
5 184 5 251 0 126 1 127 42 90z m92 -142 c-5 -22 -12 -115 -16 -206 -6 -158
-7 -166 -25 -161 -17 4 -19 11 -13 54 4 27 7 130 8 229 l0 180 28 -28 c26 -26
27 -31 18 -68z m-3629 41 c0 -7 13 -54 30 -103 23 -71 27 -97 21 -121 -5 -17
-49 -88 -97 -158 -98 -143 -113 -175 -114 -255 0 -47 -8 -72 -55 -164 -54
-107 -65 -145 -45 -145 15 0 50 43 101 126 l46 74 27 -40 c25 -39 57 -52 71
-30 11 17 -13 82 -45 121 -22 28 -30 48 -30 76 l1 38 23 -45 c30 -56 60 -84
82 -76 38 15 -26 153 -70 150 -20 -2 -20 5 0 31 13 17 16 18 24 5 5 -8 10 -19
10 -24 0 -5 11 -24 26 -43 31 -41 64 -45 64 -6 l0 27 20 -22 c24 -25 50 -19
50 12 0 25 -41 115 -71 157 -13 19 -18 36 -14 47 6 14 10 10 22 -18 32 -79 97
-180 114 -180 26 0 28 10 14 65 -7 28 -12 51 -11 52 1 1 24 -35 51 -80 58 -95
91 -115 83 -49 -7 49 -95 229 -165 335 -29 44 -53 86 -53 92 0 6 -16 43 -35
84 -19 40 -35 74 -35 76 0 3 9 1 21 -3 13 -5 34 -38 58 -92 48 -108 148 -290
218 -399 l55 -84 -36 -73 c-25 -50 -64 -102 -129 -171 -54 -58 -130 -157 -184
-239 -51 -76 -103 -156 -117 -176 -14 -20 -62 -61 -108 -92 -130 -85 -256
-204 -437 -414 -61 -71 -179 -159 -196 -146 -7 5 -93 72 -191 150 -99 77 -211
165 -250 194 l-72 53 44 96 c51 109 112 206 178 280 67 76 75 90 91 177 30
156 74 242 183 357 92 96 311 262 617 467 175 118 215 137 215 106z m3726
-100 c-3 -12 -6 -96 -6 -188 l0 -167 -22 8 c-26 9 -24 -11 -20 256 l2 145 26
-16 c18 -13 24 -23 20 -38z m-3488 -19 c12 -11 22 -25 22 -31 0 -13 91 -173
141 -249 36 -54 38 -60 25 -85 -14 -26 -14 -25 -63 78 -27 58 -77 153 -111
213 -59 104 -61 116 -14 74z m3573 -43 c16 -14 16 -18 4 -31 -12 -11 -15 -45
-15 -153 0 -121 -2 -139 -15 -134 -12 5 -14 17 -9 53 3 25 6 99 7 163 1 65 4
118 6 118 3 0 12 -7 22 -16z m-3255 -91 l54 -47 -31 -20 -32 -20 -48 51 c-27
29 -49 56 -49 62 0 8 17 16 43 20 5 0 33 -20 63 -46z m3326 30 c12 -14 17 -51
20 -165 2 -82 2 -148 -1 -148 -22 1 -29 28 -35 140 -4 69 -9 140 -13 158 -6
35 6 41 29 15z m-3747 -105 c14 -29 19 -44 10 -33 -9 11 -24 29 -34 40 -15 18
-18 45 -5 45 2 0 15 -24 29 -52z m365 -23 c11 -13 11 -19 -2 -31 -13 -14 -19
-9 -52 46 l-36 62 38 -31 c22 -16 45 -37 52 -46z m3507 -132 c4 -84 2 -104 -9
-101 -13 5 -19 44 -31 198 l-6 75 21 -33 c17 -27 22 -54 25 -139z m-1030 100
c-3 -16 -9 -56 -13 -90 -10 -91 -27 -68 -19 26 8 82 11 91 27 91 6 0 8 -11 5
-27z m-6231 -32 c23 -18 24 -23 27 -179 1 -88 -1 -158 -4 -156 -4 2 -18 33
-33 68 -23 58 -24 70 -16 123 13 79 12 137 -2 151 -19 19 1 14 28 -7z m6301
-33 c-3 -8 -6 -5 -6 6 -1 11 2 17 5 13 3 -3 4 -12 1 -19z m-6185 -199 c3 -85
9 -176 12 -203 5 -49 5 -50 -13 -30 -17 17 -19 41 -24 207 -3 136 -1 187 7
184 7 -2 13 -59 18 -158z m112 -94 c2 -83 7 -177 11 -210 l8 -60 -25 23 c-24
22 -25 29 -31 185 -4 89 -10 182 -13 206 l-7 45 27 -20 c26 -19 26 -20 30
-169z m6229 6 c0 -20 -8 -52 -18 -71 -17 -35 -83 -110 -96 -110 -4 0 -22 29
-40 64 -31 60 -32 65 -17 88 9 13 47 41 85 61 76 40 86 37 86 -32z m-906 -73
c-3 -7 -5 -2 -5 12 0 14 2 19 5 13 2 -7 2 -19 0 -25z m1800 -520 c-3 -13 -11
-78 -18 -145 -7 -67 -16 -120 -20 -117 -21 13 -29 81 -18 159 14 99 24 125 45
125 12 0 15 -6 11 -22z m57 -238 c-25 -160 -26 -147 -8 93 6 72 9 86 20 75 10
-10 8 -42 -12 -168z m109 64 c-3 -8 -18 -76 -33 -151 -33 -161 -35 -157 -15
32 8 77 15 146 15 154 0 11 4 10 19 -3 11 -10 17 -24 14 -32z m-5677 -79 c12
-76 35 -138 54 -150 7 -4 19 -1 27 8 13 13 13 23 1 85 -9 46 -10 69 -4 64 6
-3 55 -39 109 -79 74 -55 283 -202 395 -279 2 -1 -12 -33 -32 -71 -23 -46 -53
-86 -88 -118 -63 -56 -219 -174 -232 -175 -5 0 -20 49 -32 110 -28 134 -60
250 -73 263 -18 18 -31 -5 -31 -55 0 -60 32 -221 60 -302 19 -56 19 -60 2 -72
-22 -17 -21 -21 -73 220 -40 186 -55 224 -77 201 -22 -22 11 -259 56 -402 17
-53 18 -64 6 -74 -8 -7 -16 -10 -18 -8 -1 2 -17 81 -35 174 -32 170 -135 628
-150 668 -7 18 -2 26 28 44 21 13 49 22 65 20 29 -2 30 -5 42 -72z m3384 1 c0
-26 -6 -18 -14 19 -5 22 -4 26 4 15 5 -8 10 -24 10 -34z m2340 -148 c-10 -75
-21 -178 -25 -229 -6 -78 -11 -99 -31 -122 -12 -15 -25 -27 -27 -27 -2 0 2 30
9 68 7 37 24 150 39 252 14 102 28 196 32 210 5 24 6 24 13 4 5 -12 0 -79 -10
-156z m-183 -35 c-3 -10 -5 -4 -5 12 0 17 2 24 5 18 2 -7 2 -21 0 -30z m70
-80 c-3 -10 -5 -2 -5 17 0 19 2 27 5 18 2 -10 2 -26 0 -35z m526 -11 l28 -17
5 -150 c2 -82 11 -226 20 -319 8 -92 13 -170 11 -172 -9 -9 -57 16 -57 30 0
93 -45 602 -56 630 -8 21 14 20 49 -2z m-539 -99 c-3 -43 -11 -82 -17 -88 -6
-7 -7 5 -3 35 4 25 10 64 13 88 10 70 14 47 7 -35z m456 -193 c6 -96 13 -202
15 -235 l5 -60 -24 50 c-46 93 -58 334 -24 463 l13 47 2 -45 c2 -25 7 -124 13
-220z m-7450 240 c0 -5 -5 -10 -11 -10 -5 0 -7 5 -4 10 3 6 8 10 11 10 2 0 4
-4 4 -10z m7653 -20 l34 -20 6 -168 c3 -92 11 -222 18 -290 6 -67 10 -124 8
-126 -2 -2 -18 -2 -35 1 l-31 5 -7 206 c-4 114 -12 253 -19 310 -7 56 -11 102
-10 102 1 0 17 -9 36 -20z m-2956 -72 c-3 -8 -6 -5 -6 6 -1 11 2 17 5 13 3 -3
4 -12 1 -19z m3111 -14 l34 -22 4 -208 c2 -115 8 -256 13 -314 5 -58 8 -107 5
-109 -9 -9 -64 53 -73 83 -5 17 -12 101 -15 186 -4 85 -13 209 -21 275 -8 66
-15 125 -15 132 0 15 23 7 68 -23z m137 -128 l46 -54 2 -266 c1 -146 -1 -266
-5 -266 -4 0 -18 4 -31 9 -24 9 -24 12 -31 173 -8 184 -24 414 -32 441 -8 28
2 20 51 -37z m-8035 -173 c0 -9 -10 -8 -35 4 -41 20 -43 26 -12 40 18 9 24 7
34 -11 7 -11 12 -27 13 -33z m8192 -149 c4 -93 12 -214 16 -269 5 -55 8 -102
6 -103 -1 -2 -16 11 -33 30 l-30 33 -1 206 c0 113 -3 228 -7 255 l-6 49 24
-16 c23 -16 24 -22 31 -185z m91 127 l24 -9 7 -219 c4 -120 11 -252 15 -293 5
-41 6 -77 5 -79 -2 -2 -14 0 -27 6 -22 10 -23 16 -36 244 -7 129 -15 262 -18
297 -3 34 -3 62 0 62 3 0 17 -4 30 -9z m153 -237 c2 -98 8 -232 15 -297 6 -65
10 -120 8 -121 -2 -2 -18 3 -35 10 l-31 13 -6 238 c-4 131 -10 266 -13 301
l-7 62 33 -13 32 -14 4 -179z m-10592 114 c-7 -11 -7 -11 -24 22 -13 25 -13
25 8 6 12 -10 19 -23 16 -28z m10695 -37 c14 -28 20 -72 25 -191 4 -85 11
-197 17 -249 6 -51 9 -95 6 -97 -2 -2 -18 1 -35 7 -32 11 -32 11 -32 82 0 68
-11 252 -26 432 -7 75 -6 79 10 66 10 -8 26 -31 35 -50z m-4118 -184 c-4 -4
-13 18 -20 49 -16 82 -13 88 9 19 11 -33 16 -63 11 -68z m4244 71 l35 -23 0
-140 c0 -77 3 -177 7 -222 l6 -83 -30 10 -29 11 -13 206 c-7 114 -15 220 -18
235 -7 34 -3 34 42 6z m124 -85 c20 -17 22 -30 25 -188 3 -93 8 -180 12 -192
5 -20 3 -23 -20 -23 -14 0 -26 6 -26 13 0 51 -21 358 -26 380 -6 31 5 34 35
10z m108 -79 l33 -25 1 -97 c0 -53 4 -123 8 -155 8 -62 3 -72 -29 -62 -16 5
-20 15 -20 56 0 63 -18 234 -30 277 -10 39 -7 39 37 6z m-1131 -67 c41 -37 41
-66 -1 -93 -36 -23 -80 3 -97 57 -11 37 -10 43 7 55 29 22 52 17 91 -19z
m1296 -185 c3 -59 5 -108 3 -110 -1 -2 -14 0 -27 3 -24 6 -25 11 -32 103 -4
53 -9 115 -13 137 l-5 40 33 -33 c33 -32 34 -35 41 -140z m-9083 -25 c9 -12
-6 -14 -87 -12 -118 2 -121 3 -102 15 24 15 175 13 189 -3z m9158 -9 c-3 -8
-6 -5 -6 6 -1 11 2 17 5 13 3 -3 4 -12 1 -19z m-3387 -8 c0 -5 -5 -10 -11 -10
-5 0 -7 5 -4 10 3 6 8 10 11 10 2 0 4 -4 4 -10z m22 -142 c-7 -7 -12 -8 -12
-2 0 14 12 26 19 19 2 -3 -1 -11 -7 -17z m2706 -120 c7 -46 15 -94 18 -108 5
-20 4 -23 -6 -13 -11 10 -70 174 -70 196 0 4 10 7 23 7 21 0 24 -7 35 -82z
m112 20 c0 -54 23 -184 46 -268 l7 -25 -25 23 c-19 17 -28 41 -38 95 -7 39
-23 109 -35 154 l-23 83 34 0 34 0 0 -62z m108 32 c8 -80 37 -238 58 -322 13
-53 24 -99 24 -103 0 -3 -18 4 -40 15 -39 20 -40 22 -40 70 0 47 -38 265 -59
338 -10 33 -10 33 22 30 26 -2 33 -8 35 -28z m125 5 c21 -4 22 -8 24 -132 1
-72 11 -178 22 -243 11 -63 18 -116 17 -118 -2 -1 -17 5 -34 15 -24 14 -30 23
-26 40 10 37 -39 328 -72 436 -5 15 -1 17 20 12 14 -3 36 -7 49 -10z m-463
-21 c0 -8 -4 -12 -10 -9 -5 3 -10 10 -10 16 0 5 5 9 10 9 6 0 10 -7 10 -16z
m638 -19 l50 -15 7 -63 c17 -171 65 -453 81 -478 8 -14 -22 -22 -44 -10 -14 8
-21 25 -25 69 -8 74 -63 358 -83 430 -16 57 -38 69 -47 25 -11 -57 39 -369 74
-460 10 -27 6 -28 -31 -6 -25 15 -29 23 -35 92 -10 116 -45 372 -55 410 l-9
33 34 -6 c18 -4 56 -13 83 -21z m-2919 -72 c5 -3 -30 -32 -40 -33 -3 0 -13 16
-22 35 l-16 34 37 -17 c20 -9 39 -18 41 -19z m-376 13 c4 -10 0 -12 -15 -8
-15 4 -17 7 -6 13 17 11 15 11 21 -5z m3453 -111 c5 -117 25 -245 53 -334 16
-52 17 -62 4 -57 -8 3 -18 6 -22 6 -5 0 -11 37 -15 81 -6 68 -23 177 -64 404
-5 29 -4 29 18 14 20 -13 22 -24 26 -114z m-3426 50 c16 -19 0 -19 -26 0 -16
12 -16 14 -3 15 9 0 22 -7 29 -15z m-5856 -27 c7 -18 12 -35 10 -37 -4 -4
-107 30 -118 40 -5 4 7 12 25 17 57 17 68 14 83 -20z m9380 -43 c20 -13 25
-28 31 -83 6 -63 44 -270 61 -337 l7 -30 -32 28 c-18 15 -37 27 -42 27 -5 0
-9 15 -9 33 0 17 -11 106 -25 197 -14 91 -25 168 -25 173 0 11 8 9 34 -8z
m268 -141 c9 -169 25 -322 49 -463 11 -62 18 -115 16 -117 -2 -2 -11 2 -21 9
-13 10 -19 31 -22 83 -2 38 -24 191 -47 341 -42 268 -43 272 -22 276 11 2 25
3 30 2 6 -1 13 -58 17 -131z m-113 -6 c11 -107 48 -332 67 -408 6 -25 6 -25
-23 5 -28 27 -32 41 -47 150 -14 102 -49 274 -72 353 -6 20 -3 22 28 22 l34 0
13 -122z m-3789 32 c0 -5 -7 -10 -16 -10 -8 0 -12 5 -9 10 3 6 10 10 16 10 5
0 9 -4 9 -10z m-5696 -10 c-6 -6 -21 -6 -39 -1 -30 9 -30 9 10 10 25 1 36 -2
29 -9z m6157 -137 c13 -15 12 -15 -8 -4 -24 12 -29 21 -14 21 5 0 15 -7 22
-17z m-311 -68 c0 -7 -42 -23 -78 -30 -16 -3 -9 2 18 14 48 21 60 24 60 16z
m-5100 -89 c0 -2 -21 -17 -47 -32 -27 -15 -59 -34 -73 -43 -24 -15 -24 -15
-10 3 28 36 130 92 130 72z m5120 -23 c0 -33 -14 -43 -45 -35 l-29 8 35 21
c19 12 35 22 37 22 1 1 2 -7 2 -16z m-6741 -115 c22 -15 23 -20 12 -46 -7 -17
-23 -40 -37 -53 l-24 -22 0 27 c0 15 -9 44 -20 66 -24 48 -24 48 -2 52 21 5
40 -1 71 -24z m-138 -48 c12 -28 32 -59 45 -69 l24 -19 -37 -15 c-36 -14 -37
-14 -14 -27 14 -7 38 -9 60 -6 159 28 205 16 274 -68 76 -92 133 -143 182
-162 l48 -18 -49 -15 c-37 -12 -50 -21 -52 -38 -3 -17 4 -26 25 -35 26 -12 23
-13 -47 -18 -47 -4 -96 -1 -131 8 -53 13 -70 12 -275 -22 -241 -40 -301 -43
-344 -21 -36 19 -67 58 -75 95 -4 17 -15 36 -26 43 -10 8 -41 59 -68 113 -27
54 -61 118 -76 142 -25 40 -25 42 -6 42 15 0 31 -22 66 -89 56 -109 121 -201
141 -201 31 0 26 34 -14 114 -22 44 -53 100 -67 124 l-26 42 28 -1 c25 0 32
-9 70 -87 71 -145 153 -236 153 -168 0 29 -61 154 -109 226 l-31 45 33 12 c43
16 47 15 47 -3 0 -20 59 -140 100 -205 36 -55 70 -67 70 -23 0 30 -57 157 -99
219 l-30 45 29 15 c28 14 30 14 30 -2 0 -28 54 -134 88 -173 27 -31 32 -33 46
-20 13 13 13 21 -4 68 -10 29 -33 75 -49 103 -17 27 -31 53 -31 58 0 7 55 35
77 40 1 1 12 -22 24 -49z m831 -22 c66 -33 82 -55 56 -75 -7 -5 -71 -20 -141
-32 l-129 -23 -29 28 c-16 15 -29 32 -29 36 0 5 21 32 47 60 l48 50 55 -5 c33
-4 82 -19 122 -39z m-1410 -173 c59 -119 64 -133 42 -123 -13 6 -38 36 -55 67
-17 31 -51 84 -75 119 -24 35 -44 65 -44 67 0 3 15 5 33 4 31 -1 34 -5 99
-134z m7793 -16 c16 -16 -30 -10 -51 6 -18 14 -17 15 11 9 17 -4 34 -11 40
-15z m-6306 -216 c38 -77 37 -80 -15 -85 -38 -3 -48 0 -52 14 -5 20 -11 22
-120 38 -45 7 -85 16 -88 21 -3 5 1 9 8 9 7 1 51 9 98 20 131 29 146 27 169
-17z m6261 -9 c0 -2 -9 -4 -21 -4 -11 0 -18 4 -14 10 5 8 35 3 35 -6z m-625
-94 c18 -20 17 -20 -41 -20 -70 0 -104 15 -58 25 16 4 34 8 39 10 25 8 43 4
60 -15z m59 -115 c-4 -8 -14 -15 -23 -15 -14 1 -13 3 3 15 25 19 27 19 20 0z
m2446 -55 c0 -15 -7 -20 -25 -20 -29 0 -33 15 -7 29 25 15 32 13 32 -9z m343
-61 c-38 -8 -43 -3 -43 39 l0 36 36 -35 35 -34 -28 -6z m-2827 -55 c8 -20 13
-38 10 -41 -6 -6 -158 15 -184 25 -13 4 101 43 151 51 4 0 15 -15 23 -35z
m2489 -14 c-3 -5 -16 -10 -28 -10 -18 0 -19 2 -7 10 20 13 43 13 35 0z m-95
-167 c0 -14 -44 -16 -75 -3 -19 7 -19 8 5 17 14 6 32 12 40 15 16 5 30 -8 30
-29z m-7440 -3 c36 -5 83 -10 106 -10 59 0 62 -12 7 -31 -45 -15 -52 -15 -113
2 -94 26 -122 38 -115 49 3 6 16 8 28 5 12 -3 51 -9 87 -15z m4974 -39 c15
-17 15 -19 1 -25 -33 -12 -155 -1 -155 14 0 6 79 25 121 29 9 0 24 -7 33 -18z
m-4379 -10 c-6 -5 -50 -21 -99 -36 -90 -27 -101 -27 -221 -8 l-40 6 70 23 c55
17 95 22 185 23 67 1 110 -3 105 -8z m-475 -101 c21 -7 22 -8 5 -10 -11 -1
-46 -5 -77 -9 -64 -8 -76 0 -25 17 39 12 64 13 97 2z m5005 -30 c8 -26 -10
-57 -43 -74 -34 -17 -143 -27 -201 -18 l-44 7 69 18 c38 9 98 33 134 51 79 41
77 41 85 16z m-5870 -10 c-11 -5 -29 -9 -40 -9 l-20 0 20 9 c11 5 29 9 40 9
l20 0 -20 -9z m98 -89 c33 -59 33 -63 4 -52 -12 5 -61 16 -107 25 -47 10 -92
20 -100 23 -11 4 107 40 171 52 3 0 18 -21 32 -48z m8597 -26 c-14 -17 -44 -5
-60 25 -16 30 -12 32 31 10 33 -17 38 -24 29 -35z m-8853 -101 c191 -29 297
-29 319 1 12 17 16 15 54 -19 22 -20 45 -36 50 -36 6 0 10 -3 10 -8 0 -4 -96
-6 -212 -4 l-213 4 -102 40 c-57 23 -103 42 -103 44 0 7 30 4 197 -22z m6709
4 l49 -22 -54 -8 c-30 -5 -56 -6 -59 -4 -5 5 6 56 12 56 2 0 25 -10 52 -22z
m-6771 -128 c3 -6 -1 -7 -9 -4 -18 7 -21 14 -7 14 6 0 13 -4 16 -10z m85 -25
c19 -7 28 -13 20 -13 -8 0 -31 6 -50 13 -19 7 -28 13 -20 13 8 0 31 -6 50 -13z
m8953 -184 c37 -16 46 -25 49 -48 2 -22 11 -31 47 -44 l44 -16 -33 -6 c-59
-12 -106 -8 -123 11 -19 21 -47 85 -47 107 0 20 9 19 63 -4z m2132 -52 c-14
-30 -25 -60 -25 -68 0 -8 -3 -12 -6 -9 -8 8 27 122 40 130 19 12 17 2 -9 -53z
m-9190 -57 c-5 -23 -27 -46 -88 -93 -109 -83 -142 -96 -264 -104 -96 -7 -101
-6 -108 13 -3 12 -14 23 -23 26 -36 10 -226 47 -418 80 -231 40 -256 48 -247
73 9 27 34 53 51 53 9 0 158 -47 331 -104 174 -57 335 -107 359 -111 57 -9
110 17 267 133 98 73 123 87 134 77 9 -9 11 -23 6 -43z m4652 22 c-3 -3 -12
-4 -19 -1 -8 3 -5 6 6 6 11 1 17 -2 13 -5z m-942 -34 c18 -19 17 -20 -7 -20
-14 0 -47 3 -74 7 l-49 7 40 12 c57 18 69 17 90 -6z m-3520 -92 c22 -17 70
-84 118 -164 4 -7 -2 -12 -16 -12 -12 0 -78 -5 -147 -10 -126 -10 -330 -5
-330 8 0 14 37 39 117 79 45 22 97 54 115 69 67 58 99 65 143 30z m-1158 -42
c65 -14 169 -32 232 -41 63 -8 116 -17 118 -19 4 -4 -259 -26 -310 -26 -21 0
-54 7 -75 15 -55 24 -150 122 -97 102 8 -4 67 -17 132 -31z m3252 -30 c-9 -8
-10 -7 -5 7 3 10 7 24 7 30 1 7 3 4 6 -7 3 -10 -1 -23 -8 -30z m1559 -22 c2
-14 -6 -27 -24 -39 -23 -15 -43 -17 -133 -12 -58 2 -124 11 -146 19 l-39 15
119 12 c66 7 136 16 155 21 49 12 65 8 68 -16z m3484 -84 c51 -16 57 -30 14
-30 -28 0 -73 12 -94 26 -2 1 2 12 8 24 10 19 13 20 23 7 7 -8 29 -20 49 -27z
m-14063 -117 c28 -58 49 -108 47 -110 -4 -5 -90 150 -105 190 -6 15 -7 27 -2
27 5 0 32 -48 60 -107z m5049 15 c-7 -22 -290 -112 -344 -110 -52 2 -140 41
-186 82 l-43 39 288 1 c227 0 288 -3 285 -12z m792 -67 l135 -38 -65 -5 c-71
-5 -120 9 -157 44 -28 26 -31 10 -3 -20 11 -12 20 -24 20 -27 0 -3 -29 -5 -64
-5 -58 0 -64 2 -70 23 -11 43 -7 56 22 60 15 2 32 5 37 5 6 1 71 -15 145 -37z
m7030 24 c-13 -16 -47 -19 -77 -8 -16 6 -15 8 7 14 14 4 38 7 54 8 24 1 27 -1
16 -14z m1362 -34 c22 -8 22 -9 -9 -25 -41 -20 -123 -22 -123 -2 0 41 12 48
62 42 26 -4 58 -10 70 -15z m-4058 -20 c4 -5 -3 -7 -14 -4 -23 6 -26 13 -6 13
8 0 17 -4 20 -9z m1636 -61 c-8 -5 -24 -10 -35 -10 -17 0 -17 2 -5 10 8 5 24
10 35 10 17 0 17 -2 5 -10z m-257 -27 c44 -9 72 -20 65 -24 -27 -15 -183 -41
-218 -36 -47 6 -143 48 -133 57 25 24 183 25 286 3z m-5518 -15 c6 -13 26 -27
50 -34 22 -6 36 -12 30 -13 -14 -1 -225 56 -232 63 -4 3 27 6 68 6 67 0 75 -2
84 -22z m-1560 -33 c33 -13 135 -45 228 -71 92 -26 167 -51 167 -56 0 -4 -14
-17 -31 -27 -27 -17 -35 -18 -53 -6 -12 7 -37 16 -57 19 -30 5 -38 12 -42 35
-6 27 -11 29 -94 45 -102 20 -251 64 -259 77 -11 18 83 8 141 -16z m1398 -45
c-9 -33 24 -44 141 -46 79 -2 156 -11 266 -34 85 -17 156 -33 158 -35 10 -9
-145 -17 -238 -12 -194 11 -372 72 -455 157 l-37 38 85 -25 c68 -21 84 -29 80
-43z m6140 40 c-24 -10 -254 -32 -261 -25 -2 2 18 10 44 19 54 16 256 22 217
6z m-737 -15 c18 -14 18 -14 -8 -15 -18 0 -28 5 -28 15 0 19 11 19 36 0z
m2914 -24 c0 -5 -21 -12 -47 -15 -27 -4 -57 -10 -68 -13 -31 -8 -8 10 28 24
39 14 87 16 87 4z m-9906 -51 c-5 -5 -29 -6 -59 -1 l-50 9 60 1 c37 1 56 -2
49 -9z m7163 -30 c59 0 104 -3 100 -6 -11 -11 -206 -6 -224 6 -17 11 -17 11 0
6 10 -3 66 -6 124 -6z m2709 -45 c36 -7 68 -16 70 -18 6 -6 -127 -41 -148 -39
-10 0 -38 15 -62 33 -43 30 -44 32 -30 54 l15 23 45 -19 c24 -11 74 -26 110
-34z m-3596 -27 c17 -12 30 -25 30 -29 0 -12 -220 -20 -305 -12 l-80 8 155 26
c85 15 159 27 163 28 4 0 21 -9 37 -21z m-5951 -14 c8 -7 -84 -2 -109 6 -15 5
1 6 40 3 36 -3 67 -7 69 -9z m8208 -10 c-3 -3 -12 -4 -19 -1 -8 3 -5 6 6 6 11
1 17 -2 13 -5z m-2252 -63 c-17 -16 -248 -138 -286 -151 -58 -21 -87 -7 -114
53 -45 101 -56 92 118 89 83 -1 179 1 212 6 33 5 64 10 70 11 6 1 6 -2 0 -8z
m-4674 -20 c77 -26 191 -85 213 -110 13 -15 15 -20 5 -17 -15 5 -345 76 -354
76 -12 0 -4 40 11 54 20 21 59 20 125 -3z m-3132 -123 c42 -78 31 -68 -44 42
-48 70 -52 79 -24 53 19 -18 49 -60 68 -95z m10396 42 c-11 -5 -27 -9 -35 -9
-9 0 -8 4 5 9 11 5 27 9 35 9 9 0 8 -4 -5 -9z m-7729 -76 c8 -43 -8 -82 -50
-123 l-33 -32 -12 30 c-7 16 -10 43 -6 59 7 34 72 115 85 107 5 -3 12 -21 16
-41z m373 5 c24 -9 29 -14 19 -20 -23 -15 -45 -10 -51 11 -3 11 -4 20 -3 20 2
0 18 -5 35 -11z m4688 -75 c-3 -3 -12 -4 -19 -1 -8 3 -5 6 6 6 11 1 17 -2 13
-5z m-4222 -122 l50 -32 -47 0 c-38 0 -68 11 -146 51 -55 28 -112 62 -128 74
-24 19 -11 17 96 -20 69 -23 148 -56 175 -73z m3775 68 c0 -5 -21 -10 -46 -10
-27 0 -43 4 -39 10 3 6 24 10 46 10 21 0 39 -4 39 -10z m654 -11 c-50 -55
-159 -80 -280 -64 -33 4 -54 9 -48 12 17 6 317 71 333 72 10 1 9 -5 -5 -20z
m-4794 -67 c-7 -3 -19 3 -28 13 -16 15 -15 16 12 4 15 -7 23 -15 16 -17z m612
-4 c-8 -8 -20 -8 -44 -1 l-33 11 45 1 c33 1 41 -2 32 -11z m6312 -80 l88 -73
-34 -28 c-18 -16 -64 -47 -103 -69 -126 -75 -206 -180 -221 -290 -8 -56 5 -78
46 -78 16 0 139 48 275 106 225 96 345 137 360 123 11 -11 -36 -137 -66 -180
-18 -24 -69 -80 -113 -124 -83 -81 -183 -220 -237 -327 -38 -75 -93 -136 -133
-146 -39 -11 -86 1 -151 38 -112 63 -225 75 -361 39 -117 -31 -151 -37 -244
-41 -83 -3 -84 -3 -90 22 -4 18 -15 27 -35 31 l-30 6 35 6 c19 3 73 9 120 12
112 8 157 21 192 55 35 35 36 63 2 89 l-26 20 37 45 c21 24 37 48 36 52 -1 5
8 11 20 14 32 8 35 28 5 39 -13 6 -96 20 -183 31 -87 12 -159 23 -161 25 -2 2
6 6 17 10 12 3 21 10 21 14 0 5 80 11 178 14 196 6 275 19 270 45 -3 13 -20
15 -118 13 l-116 -2 1 28 c0 36 -20 45 -165 76 -126 28 -99 37 32 12 110 -21
185 -5 275 57 l46 31 36 -42 37 -43 148 216 c145 211 174 246 207 246 9 0 55
-33 103 -72z m-6535 -77 c182 -28 236 -40 180 -41 -13 -1 -69 -5 -123 -9 -107
-9 -135 -2 -247 55 -53 26 -63 38 -26 29 12 -3 109 -18 216 -34z m-1544 -102
c-16 -4 -97 -19 -180 -32 -138 -22 -153 -23 -195 -9 -68 22 -71 32 -9 33 29 1
97 5 149 9 140 10 273 10 235 -1z m119 -37 c11 -18 -78 -91 -124 -102 -65 -15
-336 -23 -390 -11 -36 8 -25 9 57 4 101 -5 102 -5 108 19 6 22 19 26 168 60
89 19 165 36 169 37 4 0 9 -3 12 -7z m6776 -106 c118 -46 128 -57 27 -31 -57
15 -267 108 -267 119 0 5 50 -13 240 -88z m-218 19 c55 -35 59 -45 19 -45 -35
0 -81 35 -81 62 0 23 -1 23 62 -17z m-1222 -30 c47 3 101 8 120 11 l35 4 -40
-36 c-46 -42 -164 -101 -174 -87 -3 5 -22 15 -41 23 -53 21 -168 78 -173 87
-3 5 38 5 91 1 54 -5 135 -6 182 -3z m-6142 -62 c4 -14 -36 -17 -78 -6 l-25 7
25 7 c35 10 73 6 78 -8z m923 -10 c7 -7 -43 -21 -138 -42 -208 -44 -231 -46
-138 -12 44 16 103 39 130 50 51 22 127 23 146 4z m5772 -110 c-38 -35 -71
-63 -75 -63 -4 0 -12 9 -18 19 -9 17 0 28 62 79 65 54 73 59 85 44 11 -15 4
-25 -54 -79z m1022 52 c102 -31 59 -31 -60 0 -66 17 -81 23 -55 23 19 1 71
-10 115 -23z m-66 -81 c2 -2 -14 -4 -37 -4 -30 0 -42 4 -42 14 0 12 7 12 38 4
20 -5 39 -12 41 -14z m-6282 -1 c2 -6 -23 -13 -64 -17 -37 -4 -84 -9 -103 -11
-19 -3 6 6 55 19 96 25 107 26 112 9z m-1015 -44 c9 -5 58 -9 108 -9 75 0 91
-3 87 -14 -3 -8 0 -22 8 -33 12 -17 31 -18 247 -17 208 1 379 14 531 40 32 6
37 4 37 -13 0 -45 -35 -117 -82 -169 -90 -98 -166 -128 -353 -140 -130 -9
-193 8 -261 69 -44 39 -64 48 -184 81 -243 69 -566 184 -602 215 -11 10 445 0
464 -10z m5428 -199 c0 -16 -6 -18 -37 -14 -86 12 -91 16 -33 29 62 13 70 11
70 -15z m2204 -89 c6 -9 -26 -21 -54 -21 -9 1 -5 7 10 15 30 17 37 18 44 6z
m-599 -90 l40 -9 -40 0 c-22 0 -65 3 -95 8 l-55 7 55 1 c30 0 73 -3 95 -7z
m-817 -63 c-3 -28 -8 -34 -43 -44 -23 -6 -61 -15 -85 -18 l-45 -7 80 49 c44
28 84 51 88 51 5 1 7 -13 5 -31z m949 -80 l172 -12 -47 -26 c-26 -14 -67 -39
-91 -54 -120 -77 -206 -95 -261 -56 -29 21 -73 101 -84 156 l-7 30 73 -13 c40
-7 150 -18 245 -25z m-1007 -28 c-8 -5 -22 -9 -30 -9 -10 0 -8 3 5 9 27 12 43
12 25 0z m-2646 -140 c4 -24 3 -29 -3 -15 -4 11 -11 36 -15 55 -4 24 -3 29 3
15 4 -11 11 -36 15 -55z"/>
<path d="M14780 14915 c0 -19 50 -65 78 -72 29 -7 88 21 106 49 16 26 3 30
-43 13 -39 -13 -46 -13 -92 4 -36 14 -49 16 -49 6z"/>
<path d="M11733 13203 c-33 -73 -58 -176 -48 -193 10 -17 33 -11 50 13 22 32
79 213 72 232 -4 8 -15 15 -25 15 -14 0 -28 -18 -49 -67z"/>
<path d="M13322 12527 c-25 -29 -80 -324 -103 -546 -10 -93 -10 -124 -1 -133
28 -28 47 36 92 305 46 275 51 422 12 374z"/>
<path d="M13324 12105 c-8 -19 -24 -108 -35 -197 -26 -193 -33 -598 -12 -619
10 -10 14 -7 22 14 12 30 61 651 61 763 0 82 -12 95 -36 39z"/>
<path d="M10283 12108 c-4 -7 -9 -102 -10 -210 -2 -165 -5 -204 -20 -239 l-18
-41 3 139 c3 113 1 141 -11 151 -11 10 -17 9 -25 -1 -14 -16 -30 -149 -37
-291 -3 -61 -8 -113 -12 -117 -5 -5 -7 42 -5 104 4 119 -7 171 -32 161 -19 -7
-24 -33 -41 -219 -7 -82 -21 -175 -30 -205 -19 -62 -15 -208 9 -340 9 -51 10
-79 3 -88 -12 -15 -22 -272 -13 -336 6 -35 11 -46 26 -46 21 0 26 18 36 124
l7 79 43 -154 c56 -205 71 -302 55 -373 -13 -57 -51 -124 -118 -206 -53 -63
-87 -167 -88 -260 0 -55 4 -71 28 -106 33 -49 43 -114 31 -210 l-8 -69 -6 62
c-8 70 -24 100 -46 82 -11 -9 -14 -43 -14 -138 1 -135 11 -209 30 -221 9 -5 7
-23 -8 -71 l-20 -64 -7 55 c-8 66 -30 164 -40 179 -3 6 -13 11 -22 11 -14 0
-15 -15 -10 -127 4 -71 13 -173 22 -227 11 -74 12 -102 4 -112 -6 -8 -15 -14
-19 -14 -4 0 -10 51 -13 113 -7 144 -23 219 -45 215 -14 -3 -18 -21 -22 -103
-4 -89 -6 -95 -13 -57 -9 45 -32 65 -49 41 -11 -16 -3 -255 11 -313 7 -30 6
-44 -4 -59 -13 -18 -14 -17 -19 14 -6 45 -44 534 -52 680 -6 121 -16 157 -34
129 -39 -62 -15 -614 39 -879 8 -38 6 -49 -12 -77 -12 -19 -25 -34 -28 -34 -4
0 -10 62 -14 138 -7 147 -30 378 -41 405 -3 10 -12 17 -19 17 -30 0 -31 -162
-3 -453 7 -78 8 -121 1 -128 -7 -7 -12 32 -16 113 -10 204 -38 312 -68 268
-14 -20 -4 -268 16 -389 15 -93 15 -95 -5 -115 -22 -22 -21 -25 -25 36 -1 19
-41 78 -54 78 -4 0 -13 -30 -19 -67 -6 -38 -18 -95 -26 -128 l-14 -60 -1 45
c-2 66 -28 199 -42 216 -9 11 -15 12 -25 3 -23 -19 -18 -147 12 -286 4 -22 3
-33 -5 -33 -6 0 -11 15 -11 33 -1 42 -16 107 -29 120 -7 7 -15 6 -27 -4 -13
-11 -16 -28 -12 -101 3 -73 1 -91 -12 -103 -16 -14 -18 -10 -23 47 -8 83 -15
100 -41 96 -19 -3 -21 -10 -24 -81 -2 -42 1 -93 7 -111 6 -23 5 -38 -2 -45
-23 -23 -34 -10 -36 41 -2 56 -19 85 -45 75 -17 -7 -21 -32 -17 -107 2 -43 0
-46 -37 -67 -37 -21 -73 -76 -59 -90 3 -3 20 6 36 20 17 14 60 32 103 42 66
17 78 24 130 77 32 32 62 58 68 58 5 0 10 5 10 10 0 6 5 10 10 10 6 0 31 10
56 22 51 24 79 62 89 120 6 34 9 37 26 27 11 -5 27 -7 37 -4 17 6 87 90 98
119 3 9 17 16 29 16 32 0 82 60 157 189 36 62 91 136 134 182 68 74 73 81 79
136 16 138 57 310 90 378 19 39 43 104 55 145 44 160 50 177 79 221 51 81 121
121 237 134 177 20 225 54 306 216 99 196 209 462 195 471 -19 12 -20 11 -52
-37 -16 -24 -33 -45 -37 -45 -5 0 -8 26 -8 58 0 71 -27 225 -44 248 -8 11 -18
14 -26 9 -14 -9 -8 -200 10 -328 8 -52 7 -74 -2 -90 -12 -21 -13 -20 -16 13
-7 83 -34 217 -49 239 -15 23 -16 24 -29 6 -8 -10 -14 -35 -15 -54 0 -20 -11
18 -24 85 -22 120 -37 164 -55 164 -5 0 -12 -11 -16 -25 -8 -32 20 -280 52
-453 13 -73 22 -138 19 -143 -12 -19 -23 -8 -29 29 -28 157 -52 222 -77 207
-13 -9 -10 -129 5 -207 12 -62 11 -68 -4 -68 -14 0 -18 15 -23 103 -8 122 -32
264 -48 283 -9 12 -15 12 -27 2 -12 -11 -13 -31 -8 -123 4 -60 11 -131 15
-157 9 -55 3 -59 -26 -20 -17 23 -23 54 -32 162 -14 164 -29 253 -46 277 -26
35 -37 2 -33 -106 2 -55 0 -101 -3 -101 -15 0 -38 83 -44 160 -6 91 -37 246
-55 280 -14 26 -36 26 -43 -2 -7 -26 7 -143 28 -234 8 -37 13 -69 10 -72 -7
-7 -11 6 -64 233 -86 365 -107 537 -77 637 13 47 25 64 72 104 31 26 66 68 79
93 36 72 122 309 150 413 48 179 24 210 -36 45 l-34 -92 -8 85 c-10 103 -19
142 -34 147 -6 2 -15 -2 -20 -9z m479 -1993 c-8 -13 -20 31 -20 75 -1 32 0 31
13 -15 7 -27 10 -54 7 -60z m-905 -1402 c-3 -10 -5 -2 -5 17 0 19 2 27 5 18 2
-10 2 -26 0 -35z"/>
<path d="M5897 11909 c-36 -55 -52 -295 -23 -335 31 -41 47 19 61 226 5 75 4
99 -8 114 -14 19 -15 19 -30 -5z"/>
<path d="M5241 11678 c-12 -35 -25 -92 -28 -126 -6 -63 -6 -64 18 -60 19 2 28
15 46 66 13 35 24 89 25 120 3 52 1 57 -18 60 -19 3 -25 -6 -43 -60z"/>
<path d="M5322 11608 c-52 -140 -82 -388 -47 -388 9 0 20 12 26 28 17 43 68
281 75 350 6 58 5 62 -14 62 -16 0 -25 -12 -40 -52z"/>
<path d="M16545 11593 c-17 -69 49 -472 92 -555 18 -37 43 -37 43 0 0 37 -78
509 -91 550 -13 39 -34 42 -44 5z"/>
<path d="M7659 11473 c-7 -20 -7 -61 0 -138 14 -141 22 -170 47 -170 17 0 19
9 22 80 4 86 -13 222 -30 243 -16 19 -28 14 -39 -15z"/>
<path d="M9872 11487 c-29 -35 -64 -286 -44 -316 32 -47 75 86 76 238 1 84 -8
107 -32 78z"/>
<path d="M16474 11415 c-4 -9 -4 -53 0 -98 6 -70 5 -79 -6 -58 -20 38 -36 36
-44 -5 -8 -43 2 -388 12 -422 4 -14 13 -22 23 -20 21 4 29 56 32 193 l1 110
17 -103 c17 -102 29 -130 50 -118 16 11 14 201 -5 324 -23 160 -60 250 -80
197z"/>
<path d="M9772 11367 c-17 -20 -41 -144 -48 -249 -5 -75 -3 -97 9 -113 12 -15
19 -17 27 -9 17 17 41 169 43 278 2 99 -6 123 -31 93z"/>
<path d="M9653 11248 c-25 -31 -75 -382 -60 -421 10 -28 35 -19 46 16 22 71
44 217 45 311 1 98 -7 123 -31 94z"/>
<path d="M9492 11179 c-10 -27 -42 -340 -42 -412 0 -51 20 -65 40 -27 42 78
63 411 28 446 -16 17 -18 16 -26 -7z"/>
<path d="M17380 11165 c0 -37 64 -58 305 -100 189 -33 178 -29 198 -70 23 -48
67 -68 137 -63 50 4 70 12 154 66 54 34 101 62 106 62 4 0 11 -44 15 -97 3
-54 7 -109 8 -123 1 -14 9 -26 19 -28 28 -5 42 37 42 130 l-1 86 31 5 c17 3
40 8 51 11 14 5 39 -6 85 -38 79 -56 108 -71 116 -63 16 15 -69 106 -147 157
-40 27 -44 28 -71 14 -42 -22 -81 -15 -88 16 -10 43 -41 35 -173 -45 -158 -97
-205 -102 -236 -27 -6 15 -20 33 -31 40 -11 6 -111 23 -222 37 -112 14 -224
29 -250 34 -35 5 -48 4 -48 -4z"/>
<path d="M5753 11006 c-15 -19 -59 -92 -98 -162 -72 -130 -102 -167 -217 -267
-76 -65 -141 -149 -210 -269 -47 -80 -62 -134 -35 -126 6 3 49 54 94 114 75
98 124 150 290 305 45 41 66 75 132 212 78 159 103 227 83 227 -6 0 -23 -16
-39 -34z"/>
<path d="M9436 10569 c-13 -42 -17 -93 -26 -368 -7 -212 -14 -311 -23 -334
-17 -39 -98 -115 -195 -181 -67 -45 -77 -48 -144 -52 -55 -3 -87 -11 -133 -33
-66 -33 -151 -108 -184 -162 -42 -68 -24 -65 71 11 85 68 168 110 216 110 30
0 32 -2 32 -32 0 -18 5 -50 11 -71 8 -31 14 -38 32 -35 20 3 22 9 22 71 0 37
2 67 5 67 3 0 10 -15 15 -32 19 -65 65 -35 65 42 0 25 10 36 73 79 41 27 94
72 119 100 l46 50 6 -31 c3 -17 6 -43 6 -58 0 -16 3 -35 6 -44 9 -24 41 -19
48 7 12 45 6 193 -10 247 -13 43 -18 120 -23 347 -4 209 -9 295 -18 304 -10
10 -13 9 -17 -2z"/>
<path d="M3006 10103 c-27 -54 -96 -253 -96 -279 0 -20 4 -25 22 -22 48 7 143
260 117 310 -14 25 -26 23 -43 -9z"/>
<path d="M11127 10011 c-50 -53 -78 -105 -142 -258 l-43 -101 36 21 c61 36
147 130 177 193 29 61 48 194 28 194 -6 0 -31 -22 -56 -49z"/>
<path d="M14269 9513 c-19 -21 -62 -83 -96 -138 -46 -76 -82 -119 -146 -177
-81 -74 -147 -157 -147 -185 0 -22 35 -15 61 13 13 15 65 59 114 99 54 43 105
94 127 126 45 69 158 274 158 288 0 24 -40 9 -71 -26z"/>
<path d="M11896 9498 c-15 -57 -7 -107 24 -140 27 -31 29 -31 30 -11 0 12 -5
56 -11 98 -12 76 -30 99 -43 53z"/>
<path d="M8762 9348 c-13 -13 -17 -191 -6 -247 5 -25 11 -31 28 -29 17 2 22
13 29 53 8 50 2 191 -9 220 -7 18 -26 19 -42 3z"/>
<path d="M8674 9224 c-10 -40 2 -278 15 -302 16 -29 29 -28 42 6 11 28 6 256
-7 300 -9 31 -42 29 -50 -4z"/>
<path d="M8577 9193 c-11 -10 -8 -244 4 -309 13 -73 27 -94 46 -68 22 30 13
284 -13 367 -5 17 -25 23 -37 10z"/>
<path d="M17990 9045 c-27 -33 -84 -485 -78 -624 3 -81 20 -103 36 -49 26 80
72 471 72 602 0 77 -8 97 -30 71z"/>
<path d="M15847 8883 c-23 -22 5 -76 54 -107 24 -15 28 -15 42 -1 20 19 13 41
-26 83 -29 30 -56 40 -70 25z"/>
<path d="M15724 8775 c-9 -23 22 -63 74 -96 57 -36 77 -34 77 6 0 23 -10 37
-50 67 -52 40 -92 49 -101 23z"/>
<path d="M9386 8648 c-22 -31 -20 -74 5 -114 25 -42 34 -42 54 -4 20 39 19 66
-6 106 -24 40 -32 42 -53 12z"/>
<path d="M3255 8133 c-223 -48 -249 -59 -223 -90 26 -32 262 5 314 48 8 6 14
20 14 30 0 16 -7 19 -42 18 -24 -1 -52 -3 -63 -6z"/>
<path d="M9991 7016 c-7 -8 -21 -67 -32 -132 -11 -65 -22 -120 -23 -122 -2 -1
-1 51 2 116 3 91 2 121 -8 127 -19 12 -36 -17 -51 -88 l-13 -62 -5 40 c-4 26
-12 41 -23 43 -21 4 -26 -13 -42 -136 l-13 -97 -4 85 c-3 69 -7 85 -20 88 -21
4 -37 -39 -45 -126 -4 -37 -10 -71 -14 -77 -4 -5 -15 -35 -24 -66 -22 -78 -70
-121 -170 -153 -17 -6 -17 -8 -4 -24 8 -9 49 -58 91 -109 43 -50 110 -118 150
-150 91 -74 179 -184 286 -357 47 -76 108 -163 137 -194 48 -52 54 -56 68 -41
30 28 -10 176 -99 374 -88 193 -140 323 -165 410 -14 46 -19 55 -25 40 -39
-117 -121 -180 -167 -127 -70 79 -65 210 8 228 39 10 111 -15 139 -48 24 -29
24 -29 29 -6 3 13 11 66 17 118 11 84 16 100 44 133 45 52 97 153 93 179 -5
32 -24 33 -53 2 l-25 -27 0 75 c0 80 -15 113 -39 84z m-134 -348 c-3 -8 -6 -5
-6 6 -1 11 2 17 5 13 3 -3 4 -12 1 -19z m-80 -45 c-3 -10 -5 -2 -5 17 0 19 2
27 5 18 2 -10 2 -26 0 -35z"/>
<path d="M16939 6877 c-99 -82 -275 -260 -284 -286 -18 -57 35 -37 143 53 131
110 240 240 228 271 -8 23 -17 19 -87 -38z"/>
<path d="M17101 6899 c-53 -32 -131 -119 -131 -146 0 -53 89 -7 161 84 32 40
35 55 16 71 -10 8 -22 6 -46 -9z"/>
<path d="M5092 6724 c-51 -25 -100 -74 -134 -131 l-16 -28 111 27 c62 15 129
32 150 38 40 12 107 64 107 84 0 7 -17 18 -39 24 -63 19 -122 15 -179 -14z"/>
<path d="M16544 6634 c-68 -51 -202 -183 -221 -218 -11 -21 -12 -31 -4 -39 20
-20 79 22 194 135 84 82 108 112 105 129 -5 34 -21 33 -74 -7z"/>
<path d="M16318 6549 c-90 -67 -275 -245 -294 -282 -20 -37 -7 -54 27 -37 56
29 265 214 320 284 38 47 46 75 24 83 -5 1 -40 -20 -77 -48z"/>
<path d="M15985 6527 c-120 -95 -265 -260 -265 -301 0 -41 48 -8 200 141 139
135 190 194 190 218 0 3 -10 5 -23 5 -13 0 -57 -27 -102 -63z"/>
<path d="M1250 6558 c0 -24 58 -114 102 -159 64 -66 143 -123 240 -172 l87
-45 -77 -7 c-88 -8 -218 -32 -244 -46 -26 -14 -22 -38 8 -45 43 -11 344 16
410 37 23 7 41 6 65 -4 l34 -13 -65 -13 c-183 -35 -438 -111 -465 -138 -21
-21 -10 -33 30 -33 82 0 460 96 539 137 l30 16 43 -48 c24 -26 43 -51 43 -56
0 -5 -14 -9 -31 -9 -100 0 -534 -119 -617 -170 -40 -25 -42 -50 -4 -50 37 0
660 166 678 181 10 9 25 2 65 -27 l51 -37 -143 -33 c-254 -57 -635 -169 -674
-198 -16 -12 -18 -17 -8 -27 10 -10 27 -10 86 -1 163 28 595 146 722 198 l60
24 37 -42 37 -42 -182 -37 c-302 -61 -765 -192 -825 -234 -33 -24 -17 -38 37
-32 87 10 899 219 975 251 32 13 35 13 57 -10 12 -13 21 -26 18 -28 -2 -2 -57
-18 -121 -35 -240 -64 -626 -197 -660 -228 -27 -24 -11 -36 40 -29 107 15 596
166 728 226 l60 27 29 -23 c21 -17 25 -24 15 -28 -8 -2 -76 -23 -150 -46 -222
-69 -524 -197 -545 -231 -15 -23 13 -33 57 -20 118 35 469 163 688 253 20 8
35 5 74 -12 l50 -23 -80 -23 c-256 -74 -757 -294 -785 -345 -13 -26 5 -33 49
-19 67 22 776 311 824 337 l47 25 40 -28 c22 -16 41 -31 41 -34 0 -3 -35 -15
-78 -28 -177 -54 -760 -299 -804 -338 -53 -49 11 -45 164 10 251 89 648 258
714 302 l35 24 20 -22 c28 -33 50 -76 41 -81 -4 -2 -24 -7 -45 -11 -211 -38
-885 -316 -895 -368 -3 -14 3 -18 23 -18 14 0 166 54 338 120 286 111 594 231
608 238 3 1 11 -9 19 -22 7 -14 29 -33 49 -42 l36 -18 -40 -8 c-160 -33 -642
-223 -723 -284 -38 -30 -33 -48 12 -41 89 14 743 268 780 302 15 14 29 25 31
25 2 0 21 -27 43 -60 l40 -59 -57 -16 c-194 -57 -700 -259 -741 -297 -33 -31
-7 -41 61 -24 138 37 561 195 703 265 l76 37 46 -32 46 -33 -28 -6 c-149 -33
-532 -190 -626 -257 -33 -23 -37 -48 -8 -48 27 0 232 75 425 155 177 74 226
98 249 120 15 15 20 13 61 -20 41 -34 50 -55 24 -55 -43 0 -435 -176 -469
-210 -23 -23 -19 -40 11 -40 46 0 362 126 478 191 l53 31 34 -33 c19 -18 34
-35 34 -38 0 -4 -35 -17 -77 -31 -96 -31 -313 -139 -327 -162 -35 -59 95 -26
313 78 l135 64 28 -27 28 -26 -83 -31 c-95 -36 -204 -95 -232 -125 -14 -17
-16 -24 -7 -33 9 -9 23 -9 60 0 57 15 246 106 272 132 18 18 19 17 44 -9 l25
-26 -44 -24 c-46 -24 -60 -46 -49 -76 5 -13 14 -15 36 -11 35 7 88 42 88 59 0
6 23 -13 52 -43 31 -33 53 -49 56 -42 12 36 -260 378 -392 495 -34 30 -99 83
-146 119 -96 74 -111 89 -154 155 -33 50 -55 65 -123 82 -37 10 -46 19 -76 74
-77 136 -149 200 -315 278 -100 47 -109 54 -265 207 -89 87 -171 165 -182 173
-11 8 -28 28 -37 44 -10 17 -25 30 -37 30 -11 0 -38 22 -61 47 -53 61 -81 77
-230 133 -242 92 -355 158 -477 283 -46 46 -83 77 -83 70z"/>
<path d="M17712 6358 c-17 -21 -47 -105 -97 -269 -26 -85 -73 -217 -105 -294
-60 -146 -78 -213 -63 -240 13 -22 23 -8 57 72 14 34 41 90 60 125 49 89 70
148 115 317 52 193 68 278 54 292 -7 7 -13 6 -21 -3z"/>
<path d="M17560 6228 c-29 -68 -86 -202 -125 -298 -87 -211 -102 -242 -173
-345 -70 -102 -78 -123 -97 -242 -20 -126 -46 -179 -108 -218 -152 -96 -200
-130 -274 -196 -88 -77 -101 -103 -57 -120 33 -12 31 -13 199 127 72 60 155
122 185 138 168 89 207 117 274 200 45 54 59 58 326 81 207 19 276 30 297 47
11 9 11 13 1 19 -18 12 -239 11 -421 -1 -172 -11 -202 -23 -261 -100 -32 -42
-74 -81 -112 -103 -14 -8 28 190 50 233 10 19 43 70 73 112 29 42 65 102 78
132 33 75 178 465 204 550 20 63 21 106 3 106 -4 0 -32 -55 -62 -122z"/>
<path d="M10437 6128 c-21 -95 -37 -195 -36 -223 2 -125 45 -187 116 -169 89
22 104 121 54 349 -46 208 -49 215 -74 215 -21 0 -25 -12 -60 -172z"/>
<path d="M17754 6166 c-37 -57 -149 -400 -172 -525 -11 -63 0 -86 27 -54 35
41 166 441 178 542 6 57 -8 74 -33 37z"/>
<path d="M17837 5997 c-27 -41 -99 -191 -123 -255 -25 -65 -31 -117 -15 -127
16 -9 36 20 94 137 61 124 101 233 93 254 -8 21 -32 17 -49 -9z"/>
<path d="M15303 5923 c-51 -54 -103 -135 -103 -161 0 -12 8 -26 17 -29 37 -15
177 183 152 214 -17 20 -29 16 -66 -24z"/>
<path d="M17906 5928 c-22 -34 -61 -127 -75 -179 -27 -98 6 -127 51 -45 37 69
83 209 75 229 -9 24 -34 21 -51 -5z"/>
<path d="M15386 5841 c-25 -38 -92 -118 -147 -177 -167 -181 -231 -295 -288
-518 -35 -132 -43 -186 -32 -204 13 -22 26 3 81 163 79 228 131 325 245 455
88 101 143 174 175 236 28 53 40 114 22 114 -5 0 -30 -31 -56 -69z"/>
<path d="M18003 5863 c-50 -91 -69 -218 -33 -218 29 0 108 203 93 241 -10 26
-39 14 -60 -23z"/>
<path d="M18100 5808 c-24 -40 -53 -131 -48 -156 2 -9 13 -18 24 -20 44 -6
105 197 62 206 -11 2 -25 -9 -38 -30z"/>
<path d="M3944 5685 c-9 -22 38 -112 90 -171 54 -62 98 -84 163 -84 36 0 68
-9 111 -31 76 -37 194 -51 227 -26 28 22 12 33 -60 46 -33 6 -95 29 -137 51
-63 32 -88 40 -131 40 -67 0 -100 21 -175 110 -65 76 -80 87 -88 65z"/>
<path d="M14706 5399 c-39 -46 -101 -182 -130 -283 -41 -141 -31 -227 17 -135
36 72 168 422 163 435 -8 21 -22 17 -50 -17z"/>
<path d="M14743 5283 c-62 -106 -149 -426 -130 -477 9 -23 32 -10 45 27 43
123 142 450 142 471 0 41 -26 31 -57 -21z"/>
<path d="M18003 5319 c-97 -9 -244 -32 -303 -49 -83 -23 -90 -60 -12 -60 59 0
561 56 585 66 10 3 17 14 15 23 -6 29 -104 36 -285 20z"/>
<path d="M18065 5213 c-91 -9 -217 -32 -231 -44 -24 -20 -16 -38 22 -45 66
-12 357 21 405 47 23 12 25 35 3 43 -16 6 -128 6 -199 -1z"/>
<path d="M16124 5097 c-136 -119 -180 -168 -210 -230 -13 -28 -15 -40 -7 -48
11 -11 67 35 262 216 63 59 121 137 121 162 0 32 -45 5 -166 -100z"/>
<path d="M14827 5137 c-52 -80 -117 -351 -117 -488 0 -71 2 -80 17 -77 13 2
21 21 30 63 7 33 36 158 64 278 28 120 48 225 45 233 -8 20 -22 17 -39 -9z"/>
<path d="M18231 5117 c-33 -17 -36 -33 -9 -49 29 -16 261 -16 301 0 30 13 37
46 11 56 -30 12 -278 6 -303 -7z"/>
<path d="M16220 5023 c-24 -21 -63 -64 -86 -96 -36 -48 -42 -62 -33 -78 9 -17
12 -18 37 -5 30 16 104 91 147 148 52 71 7 92 -65 31z"/>
<path d="M16688 5000 c-76 -46 -168 -126 -210 -184 -28 -39 -38 -86 -17 -86 6
0 48 31 93 68 44 38 116 96 158 131 77 61 103 92 91 105 -15 14 -52 3 -115
-34z"/>
<path d="M4197 4883 c-38 -38 69 -138 154 -145 25 -2 34 1 37 15 5 26 -13 44
-97 93 -80 46 -84 48 -94 37z"/>
<path d="M4563 4774 c-17 -44 63 -83 174 -83 84 -1 103 5 103 29 0 26 -7 29
-112 45 -51 8 -108 17 -126 20 -24 5 -34 2 -39 -11z"/>
<path d="M4775 4666 c-53 -40 53 -76 176 -59 67 9 95 31 71 55 -20 20 -221 24
-247 4z"/>
<path d="M5887 4065 c-8 -19 14 -101 61 -226 50 -134 79 -189 97 -189 35 0 4
142 -64 301 -50 114 -80 151 -94 114z"/>
<path d="M6020 3975 c0 -52 145 -460 186 -522 8 -13 22 -23 31 -23 13 0 14 7
9 42 -14 90 -142 445 -181 505 -21 31 -45 30 -45 -2z"/>
<path d="M5230 3974 c0 -19 20 -48 127 -185 101 -130 125 -180 131 -279 2 -41
9 -84 15 -95 43 -85 353 -505 373 -505 35 0 7 55 -175 335 l-135 209 -8 81
c-6 59 -16 96 -39 142 -44 87 -245 313 -279 313 -6 0 -10 -7 -10 -16z"/>
<path d="M13292 3905 c-108 -90 -125 -121 -146 -261 -8 -55 -24 -134 -35 -175
-25 -87 -26 -109 -7 -109 20 0 44 42 72 124 20 59 54 214 54 248 0 5 36 47 80
93 44 47 83 97 86 111 13 53 -12 45 -104 -31z"/>
<path d="M6200 3836 c0 -60 93 -344 167 -509 18 -40 31 -57 42 -55 32 7 -1
138 -101 408 -66 176 -108 237 -108 156z"/>
<path d="M6364 3686 c-3 -7 5 -42 18 -77 12 -35 49 -143 83 -239 44 -129 65
-176 78 -178 57 -11 -38 349 -124 468 -30 42 -46 49 -55 26z"/>
<path d="M8402 3553 c4 -23 156 -99 318 -159 108 -40 138 -47 221 -52 72 -3
98 -1 104 8 13 21 -30 48 -83 54 -47 6 -73 14 -350 112 -163 57 -216 67 -210
37z"/>
<path d="M6547 3534 c-14 -15 -6 -55 38 -182 51 -149 114 -291 138 -311 25
-20 33 9 19 69 -15 66 -96 282 -135 359 -31 63 -46 79 -60 65z"/>
<path d="M6719 3348 c-6 -70 91 -276 177 -376 30 -35 54 -38 54 -6 0 17 -105
229 -162 327 -36 61 -66 86 -69 55z"/>
<path d="M8780 3310 c-36 -8 -31 -32 10 -52 82 -39 358 -75 375 -48 14 23 -28
46 -127 69 -107 26 -223 39 -258 31z"/>
<path d="M9053 3159 c-19 -20 -16 -27 20 -46 22 -11 65 -18 142 -21 127 -5
195 8 195 37 0 28 -18 31 -189 37 -122 5 -159 3 -168 -7z"/>
</g>
</svg>
