<?xml version="1.0" standalone="no"?>
<!DOCTYPE svg PUBLIC "-//W3C//DTD SVG 20010904//EN"
 "http://www.w3.org/TR/2001/REC-SVG-20010904/DTD/svg10.dtd">
<svg version="1.0" xmlns="http://www.w3.org/2000/svg"
 width="3000.000000pt" height="2000.000000pt" viewBox="0 0 3000.000000 2000.000000"
 preserveAspectRatio="xMidYMid meet">

<g transform="translate(0.000000,2000.000000) scale(0.100000,-0.100000)"
fill="#000000" stroke="none">
<path d="M11849 16396 c-250 -250 -476 -478 -504 -508 -27 -29 175 171 450
445 l500 497 398 0 c263 0 396 3 392 10 -4 6 -146 10 -394 10 l-388 0 -454
-454z"/>
<path d="M13115 16840 c-4 -7 258 -10 779 -10 517 0 786 3 786 10 0 7 -266 10
-779 10 -509 0 -782 -3 -786 -10z"/>
<path d="M13475 14700 c-242 -242 -435 -440 -430 -440 6 0 204 194 440 430
l430 430 612 0 c402 0 613 3 613 10 0 7 -211 10 -613 10 l-612 0 -440 -440z"/>
<path d="M19215 13690 l-490 -490 -295 -3 -295 -2 300 -3 300 -2 490 490 490
490 960 3 960 2 -965 3 -965 2 -490 -490z"/>
<path d="M16370 12775 l-425 -425 -910 -3 -910 -2 915 -3 915 -2 425 425 425
425 630 3 630 2 -635 3 -635 2 -425 -425z"/>
<path d="M7485 10838 c7 -75 15 -95 34 -84 12 8 14 42 5 110 -5 37 -11 46 -26
46 -19 0 -20 -5 -13 -72z"/>
<path d="M7570 10835 c0 -57 3 -75 14 -75 9 0 15 18 20 53 10 85 8 97 -14 97
-18 0 -20 -7 -20 -75z"/>
<path d="M7646 10858 c-9 -83 -8 -108 8 -108 21 0 24 7 31 88 7 68 6 72 -12
72 -17 0 -21 -9 -27 -52z"/>
<path d="M7394 10883 c3 -10 10 -46 17 -80 6 -35 14 -63 18 -63 24 1 28 19 18
88 -9 67 -12 72 -34 72 -18 0 -23 -4 -19 -17z"/>
<path d="M7735 10878 c-30 -134 -30 -138 -7 -138 24 0 60 138 40 152 -21 12
-27 10 -33 -14z"/>
<path d="M7328 10882 c-22 -4 -22 -1 2 -83 19 -62 35 -81 52 -63 5 5 -26 143
-34 148 -2 1 -11 1 -20 -2z"/>
<path d="M7801 10806 c-25 -86 -25 -86 -3 -86 13 0 24 17 40 68 27 83 26 79 3
85 -16 4 -22 -6 -40 -67z"/>
<path d="M7235 10850 c-4 -6 6 -41 20 -79 22 -56 31 -68 46 -64 10 3 19 7 19
9 0 1 -12 35 -26 73 -24 66 -44 86 -59 61z"/>
<path d="M7875 10779 c-19 -48 -24 -74 -17 -81 16 -16 28 -3 58 68 23 55 25
67 13 75 -23 14 -25 12 -54 -62z"/>
<path d="M7160 10820 c-13 -8 -10 -19 19 -72 42 -78 43 -79 60 -69 11 7 7 22
-19 80 -35 75 -36 76 -60 61z"/>
<path d="M7945 10741 c-29 -58 -32 -70 -19 -75 9 -3 17 -6 19 -6 2 0 20 30 40
66 30 53 35 68 24 75 -24 15 -28 11 -64 -60z"/>
<path d="M7088 10779 c-15 -8 -13 -16 24 -75 28 -44 46 -63 55 -60 8 4 17 6
20 6 6 0 -56 111 -71 127 -7 8 -16 9 -28 2z"/>
<path d="M8019 10709 c-23 -35 -38 -67 -35 -75 9 -24 25 -13 71 52 41 57 42
61 25 72 -17 10 -24 5 -61 -49z"/>
<path d="M7013 10729 c-9 -9 -1 -26 34 -70 43 -55 65 -70 77 -51 5 8 -81 132
-93 132 -4 0 -12 -5 -18 -11z"/>
<path d="M8086 10664 c-25 -33 -46 -65 -46 -71 0 -28 31 -10 76 43 43 50 46
56 32 71 -14 14 -20 10 -62 -43z"/>
<path d="M26710 10670 c0 -22 5 -40 10 -40 6 0 10 18 10 40 0 22 -4 40 -10 40
-5 0 -10 -18 -10 -40z"/>
<path d="M26817 10703 c-11 -10 -8 -73 3 -73 6 0 10 18 10 40 0 41 -2 45 -13
33z"/>
<path d="M6951 10676 c-12 -14 -8 -23 35 -69 47 -50 73 -64 81 -42 1 6 -21 36
-50 69 -47 53 -54 57 -66 42z"/>
<path d="M26611 10668 c1 -33 14 -64 22 -51 9 14 -3 73 -14 73 -5 0 -9 -10 -8
-22z"/>
<path d="M26916 10674 c-3 -9 -6 -25 -6 -37 0 -27 15 -11 24 26 7 29 -8 38
-18 11z"/>
<path d="M8140 10605 c-48 -49 -53 -57 -39 -70 13 -13 21 -9 68 39 36 36 52
60 48 70 -10 25 -19 20 -77 -39z"/>
<path d="M26515 10633 c7 -30 21 -50 30 -42 7 8 -18 69 -28 69 -5 0 -6 -12 -2
-27z"/>
<path d="M27009 10634 c-5 -15 -12 -31 -15 -35 -3 -5 1 -9 9 -9 8 0 17 8 20
18 2 9 8 25 12 35 4 10 3 17 -4 17 -6 0 -16 -12 -22 -26z"/>
<path d="M6889 10614 c-12 -15 -7 -23 41 -65 53 -47 79 -57 87 -33 2 6 -23 34
-55 63 -54 46 -61 49 -73 35z"/>
<path d="M26417 10614 c-8 -9 21 -64 33 -64 13 0 13 6 -5 40 -17 32 -18 33
-28 24z"/>
<path d="M27097 10585 c-9 -19 -13 -36 -8 -39 12 -8 45 54 34 65 -6 6 -16 -4
-26 -26z"/>
<path d="M8197 10548 c-43 -40 -55 -57 -48 -67 8 -12 20 -7 66 29 67 52 71 58
53 76 -12 13 -22 7 -71 -38z"/>
<path d="M6831 10546 c-10 -12 -1 -23 50 -60 70 -51 74 -53 83 -31 4 10 -13
30 -52 60 -64 50 -65 51 -81 31z"/>
<path d="M26330 10548 c0 -8 11 -25 25 -38 18 -17 25 -20 25 -8 0 8 -11 25
-25 38 -18 17 -25 20 -25 8z"/>
<path d="M27181 10531 c-23 -31 -26 -41 -13 -41 14 0 52 59 43 65 -5 3 -19 -8
-30 -24z"/>
<path d="M8248 10488 c-54 -38 -69 -60 -50 -72 11 -7 127 71 126 84 -4 39 -5
39 -76 -12z"/>
<path d="M6786 10475 c-3 -9 -6 -18 -6 -20 0 -5 125 -75 132 -75 3 0 8 7 12
15 4 11 -11 26 -49 51 -72 45 -81 48 -89 29z"/>
<path d="M26256 10482 c-3 -5 8 -22 24 -37 21 -20 30 -24 30 -14 0 20 -46 63
-54 51z"/>
<path d="M27255 10460 c-34 -36 -22 -40 19 -7 16 13 25 27 19 30 -5 3 -23 -7
-38 -23z"/>
<path d="M8288 10420 c-47 -28 -65 -45 -62 -55 8 -19 4 -20 84 20 63 32 69 37
60 55 -6 11 -12 20 -13 20 -1 0 -32 -18 -69 -40z"/>
<path d="M6745 10399 c-8 -25 -13 -21 67 -57 55 -25 68 -28 72 -15 3 8 6 16 6
19 0 2 -31 19 -69 39 -68 34 -70 34 -76 14z"/>
<path d="M26186 10401 c-4 -5 -1 -13 6 -17 7 -4 23 -14 36 -22 33 -21 27 3 -7
28 -17 11 -32 16 -35 11z"/>
<path d="M27315 10385 c-16 -13 -26 -27 -23 -31 10 -9 69 36 63 47 -8 11 -5
13 -40 -16z"/>
<path d="M8323 10350 c-57 -26 -74 -45 -57 -63 3 -3 36 7 72 23 46 20 67 34
67 46 0 26 -14 25 -82 -6z"/>
<path d="M6716 10333 c-20 -20 -1 -40 58 -61 36 -12 70 -22 75 -22 18 0 12 37
-6 43 -10 2 -41 14 -69 25 -29 12 -55 18 -58 15z"/>
<path d="M26135 10310 c-3 -5 8 -16 24 -25 35 -18 41 -18 41 -5 0 14 -58 42
-65 30z"/>
<path d="M27373 10303 c-29 -14 -44 -33 -28 -33 14 0 65 32 65 40 0 12 3 12
-37 -7z"/>
<path d="M8352 10276 c-35 -12 -63 -25 -63 -29 -1 -29 10 -30 77 -11 54 15 69
24 69 39 0 26 -12 26 -83 1z"/>
<path d="M6684 10238 c-3 -11 -4 -21 -2 -23 10 -8 140 -35 148 -30 25 15 4 32
-65 51 -73 21 -75 21 -81 2z"/>
<path d="M8377 10200 c-77 -20 -85 -26 -70 -41 8 -8 31 -8 82 2 64 11 71 14
71 36 0 27 5 26 -83 3z"/>
<path d="M26095 10211 c-3 -5 4 -12 15 -15 11 -3 29 -9 40 -12 33 -9 23 13
-11 25 -38 13 -36 13 -44 2z"/>
<path d="M27401 10206 c-19 -7 -30 -15 -24 -19 13 -8 73 11 73 24 0 11 -6 11
-49 -5z"/>
<path d="M6666 10154 c-9 -22 -7 -23 60 -34 84 -14 96 -13 92 7 -2 12 -21 21
-63 30 -78 16 -82 16 -89 -3z"/>
<path d="M8410 10125 c-8 -2 -32 -6 -52 -10 -27 -4 -38 -11 -38 -24 0 -16 7
-16 77 -9 42 5 78 10 80 12 2 2 1 11 -3 20 -6 15 -27 18 -64 11z"/>
<path d="M26070 10112 c0 -5 7 -13 16 -16 25 -9 64 -7 64 4 0 6 -11 10 -24 10
-13 0 -31 3 -40 6 -9 3 -16 2 -16 -4z"/>
<path d="M27428 10113 c-32 -5 -38 -23 -9 -23 26 0 51 10 51 21 0 5 -3 8 -7 8
-5 -1 -20 -4 -35 -6z"/>
<path d="M6655 10072 c-11 -29 -3 -32 75 -32 63 0 80 3 80 15 0 24 -146 40
-155 17z"/>
<path d="M8388 10043 c-60 -3 -68 -6 -68 -23 0 -18 7 -20 80 -20 79 0 80 0 80
25 0 14 -5 24 -12 23 -7 -1 -43 -3 -80 -5z"/>
<path d="M14520 10000 c0 -7 1565 -10 4675 -10 3110 0 4675 3 4675 10 0 7
-1565 10 -4675 10 -3110 0 -4675 -3 -4675 -10z"/>
<path d="M26060 10000 c0 -5 18 -10 40 -10 22 0 40 5 40 10 0 6 -18 10 -40 10
-22 0 -40 -4 -40 -10z"/>
<path d="M27400 9995 c0 -11 11 -15 40 -15 29 0 40 4 40 15 0 11 -11 15 -40
15 -29 0 -40 -4 -40 -15z"/>
<path d="M6650 9980 c0 -18 7 -20 80 -20 73 0 80 2 80 20 0 18 -7 20 -80 20
-73 0 -80 -2 -80 -20z"/>
<path d="M8320 9953 c0 -16 9 -22 46 -27 87 -11 114 -8 114 14 0 18 -7 20 -57
20 -32 0 -68 3 -80 6 -18 5 -23 2 -23 -13z"/>
<path d="M6750 9923 c-74 -5 -90 -11 -90 -34 0 -20 4 -21 48 -15 102 15 113
18 110 34 -4 18 -9 19 -68 15z"/>
<path d="M26103 9913 c-34 -4 -46 -23 -15 -23 28 0 62 12 62 21 0 5 -3 8 -7 7
-5 0 -23 -3 -40 -5z"/>
<path d="M27400 9891 c0 -10 61 -24 69 -16 8 9 -21 25 -46 25 -13 0 -23 -4
-23 -9z"/>
<path d="M8310 9877 c0 -9 8 -18 18 -21 15 -4 130 -26 139 -26 7 0 3 39 -5 44
-4 2 -40 8 -80 11 -62 7 -72 5 -72 -8z"/>
<path d="M6745 9842 c-38 -7 -72 -15 -73 -17 -2 -2 -1 -12 2 -23 6 -17 12 -19
39 -12 18 5 51 14 75 20 24 6 42 17 42 25 0 22 -10 23 -85 7z"/>
<path d="M8296 9805 c-4 -11 11 -20 60 -35 81 -25 90 -25 97 -1 4 17 -5 21
-65 35 -86 19 -85 19 -92 1z"/>
<path d="M26113 9813 c-13 -2 -23 -9 -23 -15 0 -12 59 -3 74 12 10 10 -8 11
-51 3z"/>
<path d="M27370 9802 c0 -6 14 -15 31 -21 39 -13 49 -14 49 -2 0 9 -8 12 -62
27 -10 3 -18 1 -18 -4z"/>
<path d="M6765 9765 c-38 -12 -70 -27 -69 -33 3 -38 -1 -38 102 0 46 17 66 39
45 51 -5 2 -39 -6 -78 -18z"/>
<path d="M8275 9739 c-10 -15 -2 -21 73 -50 48 -19 69 -24 74 -15 16 24 6 33
-60 54 -79 25 -79 25 -87 11z"/>
<path d="M26163 9722 c-37 -18 -45 -37 -10 -27 24 8 54 32 46 39 -2 2 -19 -3
-36 -12z"/>
<path d="M6791 9691 c-67 -28 -76 -37 -63 -59 7 -10 24 -6 78 18 81 37 76 33
68 54 -8 20 -5 20 -83 -13z"/>
<path d="M27340 9710 c0 -14 58 -42 65 -30 3 5 -8 16 -24 25 -35 18 -41 18
-41 5z"/>
<path d="M8251 9677 c-18 -18 -14 -22 60 -57 59 -29 72 -32 79 -20 15 23 14
23 -59 56 -50 23 -72 29 -80 21z"/>
<path d="M6825 9618 c-74 -37 -70 -34 -59 -58 9 -18 12 -18 74 18 59 35 81 61
55 68 -5 2 -37 -11 -70 -28z"/>
<path d="M26208 9634 c-25 -13 -38 -34 -22 -34 12 0 64 34 64 42 0 11 -11 9
-42 -8z"/>
<path d="M27290 9631 c0 -14 58 -53 64 -43 3 5 -8 19 -24 30 -32 24 -40 27
-40 13z"/>
<path d="M8217 9613 c-14 -13 -6 -23 54 -63 48 -34 63 -39 75 -30 23 20 18 26
-50 64 -70 39 -70 39 -79 29z"/>
<path d="M6863 9549 c-67 -44 -71 -50 -50 -68 19 -15 139 72 131 94 -8 21 -11
20 -81 -26z"/>
<path d="M26265 9550 c-20 -21 -24 -30 -14 -30 20 0 63 46 51 54 -5 3 -22 -8
-37 -24z"/>
<path d="M27226 9562 c-3 -5 8 -21 23 -36 16 -15 31 -23 35 -18 3 5 -8 21 -23
36 -16 15 -31 23 -35 18z"/>
<path d="M8172 9547 c-16 -19 105 -112 124 -96 8 6 14 15 14 18 0 7 -114 91
-123 91 -3 0 -9 -6 -15 -13z"/>
<path d="M6908 9483 c-49 -39 -56 -48 -47 -65 12 -21 19 -18 88 45 26 23 40
44 37 53 -8 21 -15 18 -78 -33z"/>
<path d="M26341 9486 c-13 -14 -20 -29 -16 -35 6 -10 55 37 55 53 0 13 -18 5
-39 -18z"/>
<path d="M8124 9489 c-4 -6 18 -36 50 -68 55 -54 58 -55 72 -36 14 18 11 23
-38 67 -55 48 -72 56 -84 37z"/>
<path d="M27150 9497 c0 -2 11 -18 24 -36 15 -20 27 -28 31 -21 7 11 -31 60
-47 60 -4 0 -8 -1 -8 -3z"/>
<path d="M6960 9425 c-48 -49 -53 -57 -39 -70 13 -13 21 -9 69 40 48 49 53 57
39 70 -13 13 -21 9 -69 -40z"/>
<path d="M26422 9428 c-23 -35 -18 -63 5 -32 26 34 33 53 24 58 -5 3 -18 -8
-29 -26z"/>
<path d="M8075 9440 c-8 -13 1 -27 51 -83 37 -42 43 -45 60 -32 18 13 16 17
-36 69 -56 58 -65 63 -75 46z"/>
<path d="M27080 9443 c0 -23 23 -63 37 -63 10 0 11 5 4 18 -18 32 -40 57 -41
45z"/>
<path d="M7019 9369 c-50 -57 -52 -62 -35 -75 17 -12 23 -7 67 48 39 47 47 64
38 74 -6 8 -13 14 -14 14 -2 0 -27 -28 -56 -61z"/>
<path d="M8020 9396 c-9 -12 -3 -26 31 -73 23 -32 43 -59 44 -61 5 -6 35 11
35 19 0 8 -90 129 -95 129 -2 0 -8 -6 -15 -14z"/>
<path d="M26512 9385 c-14 -31 -15 -45 -3 -45 7 0 31 51 31 66 0 14 -19 -1
-28 -21z"/>
<path d="M26990 9401 c0 -23 24 -71 31 -64 10 10 -11 73 -23 73 -4 0 -8 -4 -8
-9z"/>
<path d="M7080 9319 c-41 -59 -42 -63 -25 -75 17 -13 22 -8 61 53 30 48 39 70
31 75 -20 13 -22 10 -67 -53z"/>
<path d="M26606 9348 c-6 -30 -2 -47 9 -36 11 10 17 68 8 68 -6 0 -13 -14 -17
-32z"/>
<path d="M26901 9358 c1 -33 14 -64 22 -51 9 14 -3 73 -14 73 -5 0 -9 -10 -8
-22z"/>
<path d="M26704 9335 c-6 -32 -1 -56 10 -44 10 11 16 79 7 79 -6 0 -13 -16
-17 -35z"/>
<path d="M26800 9343 c0 -29 15 -61 24 -52 8 8 -6 79 -15 79 -5 0 -9 -12 -9
-27z"/>
<path d="M7955 9350 c-5 -8 48 -110 72 -139 2 -3 10 2 19 11 14 13 11 21 -23
76 -37 59 -55 73 -68 52z"/>
<path d="M7146 9274 c-30 -53 -35 -68 -24 -75 7 -5 16 -9 20 -9 10 0 78 132
72 142 -13 20 -32 3 -68 -58z"/>
<path d="M7903 9323 c-18 -6 -17 -16 17 -89 27 -59 31 -64 50 -54 l20 11 -20
40 c-37 72 -55 96 -67 92z"/>
<path d="M7220 9244 c-35 -78 -35 -80 -14 -88 21 -8 19 -12 53 71 25 60 27 72
14 77 -8 3 -16 6 -19 6 -2 0 -17 -30 -34 -66z"/>
<path d="M7831 9290 c-12 -7 -10 -19 10 -76 26 -69 35 -80 57 -66 9 6 6 23
-14 73 -30 75 -35 81 -53 69z"/>
<path d="M7309 9253 c-21 -54 -39 -106 -39 -113 0 -4 9 -10 20 -13 17 -4 23 4
40 63 11 37 20 72 20 79 0 22 -31 10 -41 -16z"/>
<path d="M7751 9258 c1 -7 8 -42 17 -78 15 -55 20 -64 37 -62 11 2 21 5 22 6
1 1 -8 34 -20 74 -16 55 -25 72 -39 72 -10 0 -18 -6 -17 -12z"/>
<path d="M7385 9248 c-8 -26 -34 -132 -32 -134 1 -1 11 -4 21 -6 17 -2 22 6
32 57 7 33 13 68 14 78 0 19 -28 24 -35 5z"/>
<path d="M7691 9251 c-9 -6 -11 -21 -7 -52 14 -91 17 -99 37 -99 22 0 23 7 8
86 -13 67 -19 77 -38 65z"/>
<path d="M7456 9233 c-2 -10 -8 -46 -11 -80 -6 -58 -5 -63 13 -63 22 0 32 33
32 111 0 36 -4 49 -14 49 -8 0 -17 -8 -20 -17z"/>
<path d="M7610 9170 c0 -79 0 -80 25 -80 23 0 24 2 19 48 -11 96 -15 112 -29
112 -12 0 -15 -17 -15 -80z"/>
<path d="M7530 9188 c0 -29 -3 -63 -6 -75 -5 -20 -2 -23 20 -23 26 0 26 1 26
75 0 68 -2 75 -20 75 -17 0 -20 -7 -20 -52z"/>
<path d="M15035 7653 l910 -3 425 -425 425 -425 635 2 635 3 -630 2 -630 3
-425 425 -425 425 -915 -2 -915 -3 910 -2z"/>
<path d="M18430 6803 l295 -3 490 -490 490 -490 965 2 965 3 -960 2 -960 3
-490 490 -490 490 -300 -2 -300 -3 295 -2z"/>
<path d="M13475 5300 l440 -440 612 0 c402 0 613 3 613 10 0 7 -211 10 -613
10 l-612 0 -430 430 c-236 237 -434 430 -440 430 -5 0 188 -198 430 -440z"/>
<path d="M15620 4870 c0 -7 193 -10 560 -10 367 0 560 3 560 10 0 7 -193 10
-560 10 -367 0 -560 -3 -560 -10z"/>
<path d="M17140 4537 l285 -287 715 2 715 3 -715 5 -716 5 -259 260 c-143 143
-271 269 -285 280 -14 10 103 -110 260 -268z"/>
<path d="M11345 4112 c28 -30 254 -258 504 -508 l454 -454 388 0 c248 0 390 4
394 10 4 7 -129 10 -392 10 l-398 0 -500 498 c-275 273 -477 473 -450 444z"/>
<path d="M13115 3160 c4 -7 277 -10 786 -10 513 0 779 3 779 10 0 7 -269 10
-786 10 -521 0 -783 -3 -779 -10z"/>
</g>
</svg>
